<?xml version="1.0" encoding="UTF-8"?><svg id="Layer_2" xmlns="http://www.w3.org/2000/svg" viewBox="0 0 158.71 36.03"><defs><style>.cls-1{fill:#fff;}</style></defs><g id="Layer_1-2"><path class="cls-1" d="M156.2.02h-63.88c-1.67-.14-3.32.48-4.48,1.69-1.61,1.61-1.13,3.23-3.81,3.23h-9.32c-2.67,0-2.18-1.6-3.81-3.23-1.16-1.21-2.81-1.83-4.48-1.69H2.55C1.26-.1.13.85,0,2.13c-.05.56.1,1.13.44,1.59l1.15,1.92c.41.74,1.16,1.24,2,1.34.57.04,1.08.39,1.31.92l1,1.78c.44.97,1.35,1.63,2.41,1.75.55.11,1,.15,1.73,1.38.76,1.76,2.24,3.11,4.06,3.72l23.87,7c1.6.37,2.99,1.37,3.85,2.77,1.09,1.72,2.8,2.94,4.78,3.41l22.69,6.13c1.64.49,3.42.05,4.65-1.15l4.12-3.9c1.06-1,1.51-1,2.56,0l4.12,3.9c1.23,1.2,3.01,1.64,4.65,1.15l22.72-6.14c1.98-.46,3.7-1.69,4.78-3.41.86-1.4,2.25-2.4,3.85-2.77l23.87-7c1.82-.6,3.3-1.96,4.06-3.72.68-1.24,1.17-1.28,1.73-1.38,1.06-.12,1.98-.79,2.41-1.76l1-1.78c.23-.53.73-.88,1.3-.92.84-.1,1.59-.6,2-1.34l1.15-1.92c.76-1.03.53-2.48-.5-3.24-.46-.34-1.04-.5-1.61-.44M2.54,4.01l-.69-1.15c-.21-.35-.34-1.12.65-1.12h63.9c1.29,0,2.74,0,4.15,2.43.2.35.42.68.67,1H6.5c-2.63,0-3.14,0-3.92-1.19M44.02,6.47h70.7v11.08H44.02V6.47ZM7.64,9.2c-.56-.83-1.07-1.69-1.53-2.58l36.65-.15v1.61l-31,1.8c-2.4.16-3.39,0-4.1-.69M12.46,13.42c-.33-.45-.63-.92-.89-1.42-.12-.22-.26-.44-.41-.65l1.36-.09,30.25-1.87v1.72l-23.92,2.58c-3.23.34-5.41.83-6.41-.26M20.63,16.69l-4.35-1.27c2.9-.35,26.47-3,26.47-3v1.92l-15.33,2.46c-2.24.48-4.57.44-6.79-.13M31.26,19.76l-4.84-1.41c.46-.06.73-.11,1.24-.2l15.11-2.52v2.06l-5.69,1.61s-3.54,1.06-5.81.44M38.48,21.84h0l-2.79-.81c.59-.11,1.18-.26,1.76-.43l6.18-1.81h6.91l-6.39,3c-1.82.66-3.82.68-5.66.07M44.84,27.01c-.64-.46-1.19-1.05-1.61-1.72-.38-.59-.83-1.13-1.34-1.61.51-.03,1.01-.11,1.5-.23.82-.26,1.63-.56,2.41-.91l7.69-3.74h5.11l-10.05,7.14c-1.55,1-2.78,1.38-3.71,1.07M52.43,29.48l-4.92-1.33c.64-.27,1.26-.61,1.84-1,.51-.33-.08.09,11.6-8.34h4.28l-7.88,8.07c-1.38,1.42-2.9,3-4.91,2.61M60.22,31.59l-4.63-1.25c1.05-.68,1.99-1.5,2.82-2.43l8.76-9.09h3.79l-7,10.89c-.71,1.41-2.27,2.17-3.82,1.87M68.27,33.77l-4.93-1.33c.79-.51,1.45-1.2,1.93-2l7.31-11.61h3.38s-4.29,12.58-4.59,13.22c-.86,1.84-1.84,2-3,1.74M85.94,33.4l-4.08-3.87c-1.71-1.61-3.17-1.61-4.88,0l-4.08,3.87c-.28.26-.6.47-.94.64.67-.94,1.17-2,1.48-3.11l4-12.1h3.87l4,12.1c.31,1.11.81,2.17,1.48,3.11-.34-.17-.66-.38-.94-.64M90.37,33.79c-1.2.23-2.18.1-3-1.74-.3-.64-4.59-13.22-4.59-13.22h3.32l7.31,11.61c.48.81,1.14,1.49,1.93,2l-4.97,1.35ZM98.51,31.6c-1.55.3-3.1-.47-3.82-1.87l-7-10.9h3.85l8.76,9.09c.82.94,1.77,1.75,2.82,2.43l-4.61,1.25ZM106.28,29.5c-2,.39-3.52-1.19-4.91-2.61l-7.88-8.07h4.28s11.09,8,11.6,8.34c.58.39,1.2.73,1.84,1l-4.93,1.34ZM115.48,25.31c-.41.68-.96,1.26-1.61,1.72-.92.3-2.16-.07-3.71-1.07-.44-.28-10.06-7.13-10.06-7.13h5.12s5.91,2.92,7.68,3.74c1.23.64,2.58,1.02,3.96,1.12-.51.48-.96,1.02-1.34,1.61M120.29,21.88h0c-1.84.62-3.84.59-5.66-.07-.74-.28-6.39-3-6.39-3h6.91l6.18,1.81c.58.17,1.17.32,1.76.43l-2.79.81M127.52,19.76c-2.27.62-5.81-.44-5.81-.44l-5.75-1.63v-2.07l15.11,2.52,1.24.2-4.84,1.41M138.09,16.65c-2.22.57-4.55.61-6.79.13l-15.34-2.44v-1.92l26.47,3-4.31,1.27M147.19,12.01c-.26.5-.55.98-.88,1.43-1,1.09-3.19.61-6.41.26l-23.94-2.58v-1.73l30.25,1.87,1.36.09c-.15.21-.28.43-.41.65M150.62,9.42c-1.17.75-2.49.53-6.43.3l-28.2-1.64v-1.61l36.63.16c-.75,1.05-1,2.12-2,2.78M156.84,2.83l-.69,1.15c-.78,1.21-1.29,1.2-3.92,1.19h-64.73c.25-.32.47-.65.67-1,1.4-2.44,2.86-2.43,4.15-2.43h63.9c1,0,.86.77.64,1.12M84.7,15.37c-.16-2-.28-3.18-.37-4-.73,1.26-1.4,2.56-2,3.89h-.37c-1.07-2.19-1.2-2.44-1.51-3-.1-.19-.23-.42-.43-.83-.09.79-.25,2.35-.37,3.94h-1.12c.32-2.3.83-6.22.87-6.55h.67s1.58,3.16,2.27,4.35c.8-1.47,1.32-2.52,2.36-4.35h.61c.11.94.46,3.94.78,6.55h-1.39ZM104.89,8.82h-1.3v6.55h1.3v-6.55ZM100.99,15.37v-5.58c.65,0,1.3.05,1.95.14v-1.11h-5.28v1.1c.66-.08,1.33-.12,2-.13v5.58h1.33ZM60.1,15.37v-5.58c.65,0,1.3.05,1.95.14v-1.11h-5.28v1.1c.66-.08,1.33-.12,2-.13v5.58h1.33ZM75.25,15.37v-6.55h-1v4.23l-3.9-4.23h-.73v6.55h1v-4.43l4,4.43h.63ZM52.45,13.53v1.46c.52.37,1.14.56,1.78.55,1.41,0,2.66-.79,2.66-2.14,0-.74-.44-1.4-1.12-1.67-.6-.2-1.17-.46-1.72-.77-.65-.55-.12-1.42.76-1.42.49-.04.95.26,1.11.73h.48v-1.2c-.51-.25-1.07-.39-1.64-.41-.52,0-1.02.16-1.44.46-.83.5-1.09,1.58-.59,2.4.17.29.43.52.73.67.89.53,2.1.46,2.13,1.44,0,.72-.67,1-1.18,1-.66-.02-1.23-.46-1.43-1.09h-.53ZM52.45,15.37l-2.89-6.68h-.54l-3,6.68h1.23c.18-.62.39-1.24.64-1.84h2.33c.29.72.52,1.36.69,1.84h1.54ZM48.29,12.67l.81-1.9c.63,1.44.68,1.54.82,1.9h-1.63ZM68.79,12.1c-.06-1.88-1.62-3.35-3.5-3.3s-3.35,1.62-3.3,3.5c.05,1.84,1.56,3.3,3.41,3.3,1.84.04,3.36-1.43,3.39-3.26,0-.08,0-.16,0-.24M65.39,14.73h0c-1,0-2-1-2-2.63s1-2.63,2-2.63h0c1,0,2,.91,2,2.63s-1.04,2.59-2.02,2.59l.02.04ZM93.05,15.37h1.29v-2.7h.32l2.19,2.7h1.61l-2.5-2.92c.32-.12.62-.3.87-.54.71-.71.71-1.85,0-2.56h0c-.52-.48-1.24-.7-1.94-.6h-1.88l.04,6.62ZM94.34,9.61h.44c1.33,0,1.37,1,1.37,1.12,0,.69-.61,1.31-1.82,1.11v-2.23ZM92.73,15.37l-2.9-6.68h-.54l-3,6.68h1.23c.18-.62.39-1.24.64-1.84h2.32c.29.72.52,1.36.69,1.84h1.56ZM88.55,12.67l.81-1.9c.62,1.44.68,1.54.82,1.9h-1.63ZM111.9,15.37v-6.55h-1v4.23l-3.9-4.23h-.73v6.55h1v-4.43l4,4.43h.63Z"/></g></svg>