<?xml version="1.0" encoding="UTF-8"?>
<svg xmlns="http://www.w3.org/2000/svg" version="1.1" viewBox="0 0 2500 2500">
  <defs>
    <style>
      .cls-1 {
        fill: #cc2131;
      }

      .cls-1, .cls-2, .cls-3, .cls-4, .cls-5 {
        fill-rule: evenodd;
      }

      .cls-2 {
        fill: #fff;
      }

      .cls-3 {
        fill: #fff22d;
      }

      .cls-5 {
        fill: #33a457;
      }
    </style>
  </defs>
  <!-- Generator: Adobe Illustrator 28.7.1, SVG Export Plug-In . SVG Version: 1.2.0 Build 142)  -->
  <g>
    <g id="Layer_1">
      <g>
        <path class="cls-2" d="M2092.7,303.3v43.4l-842.7-147.7-842.6,147.7v-43.4l842.6-148.7,842.7,148.7Z"/>
        <path class="cls-5" d="M2092.7,258.9v44.4l-842.7-148.7-842.6,148.7v-44.4l842.6-148.6,842.7,148.6Z"/>
        <path class="cls-1" d="M2092.7,346.8l-842.7-147.7-842.6,147.7v149.9s7.3-4.1,7.3-4.1c3-1.7,302-167.4,836.9-167.4s830.5,165.8,833.5,167.5l7.2,4.2.3-149.9Z"/>
        <path class="cls-3" d="M1251.6,354c483.1,0,766,135.9,811.8,159.8v431.4c0,235.2-55.4,469.5-164.6,696.5-239,495.9-598.6,690.6-648.9,716-50.3-25.4-410.2-220.1-649.1-716-109.2-227-164.6-461.3-164.6-696.5v-431.3c46.3-23.8,332.1-159.8,815.3-159.8h0Z"/>
        <path class="cls-4" d="M414.7,492.5l-7.3,4.1v448.6c0,239.6,56.3,478.2,167.4,709,260.8,541.5,665.2,730.9,669.2,732.8l6,2.7,6-2.7c4.1-1.9,408.1-191.3,668.9-732.8,111.2-230.8,167.5-469.4,167.5-709v-448.5l-7.2-4.2c-3-1.6-298.5-167.5-833.5-167.5s-834,165.8-836.9,167.4h0ZM1251.6,354c483.1,0,766,135.9,811.8,159.8v431.4c0,235.2-55.4,469.5-164.6,696.5-239,495.9-598.6,690.6-648.9,716-50.3-25.4-410.2-220.1-649.1-716-109.2-227-164.6-461.3-164.6-696.5v-431.3c46.3-23.8,332.1-159.8,815.3-159.8h0Z"/>
        <path class="cls-4" d="M1378.1,1939.6c14,9.7,3.9,26.5-6.5,29.2-10.8,2.9-20.1-9.1-25.3,4.1-2.9,7.1,5,60.6,59.8,60.6s75.5-65.7,80.3-75.5c4.8-9.9,8-22.4,3.1-22.4-22.4,0-29,13.3-29,13.3,0,0-1.7-12.8,9.5-22.5,9.2-7.9,21.3-6,25.6-6,9.1,0,7.7-6.8,13.2-20.3,12.6-31.7,21.3-33.1,29.4-47.6,6.8-11.8-6-16.4-31.3-18.8-25.4-2.4-38.9-1.4-50.3.3-11.3,1.6-22.6,6.2-29.7,23.6-3.8,9.4,3.1,18.7,16.4,16.3,13.3-2.5,26-12.5,26-12.5,0,0-6,23.8-25.8,28.7-18.4,4.5-40.1-6.6-37.1-25.1,3.8-24.1,20.5-41.8,50.9-47.7,30.5-6.1,60.8-1.4,87.9,5.2,27,6.8,46.8,2.7,71.9,1.2,54.1-2.9,87.6-15.7,87.6-15.7,0,0-24.4,19.8-58.2,28.9-33.8,9.2-63.9,5.4-73.7,9.2-7.9,3.4-19,19-28.2,36.9-8.4,16.4-17.4,35.3-13.5,35.3,31.4,1.2,42.9-5.7,42.9-5.7,0,0-6.2,13.6-21.2,20-10.4,4.2-28,4.2-28,4.2,0,0-7.9,20.1-16.8,38.2-9,18.1-23.7,46.4-50.2,60.3-26.6,14-77.5,31.4-109.5-14.7-33.9-48.3-3-103.3,29.6-80.9h0ZM984.8,1945.9c6.3,16-7,24.3-14.7,24.3s-17.4-5.7-19.4,3.9c-1.8,9.6,20.6,59.1,72.7,59.1s76.3-30.2,72.6-57.2c-4.1-30.2-52-42.2-90.2-62.2-18.7-9.8-60.9-16.4-60.9-55.9,0-84.4,128.5-30.5,128.5-30.5,0,0,.3-10.6,6.3-11.1,2.9-.3,8.7-1.4,10.6,8.1,1.9,9.6,10.4,60.3,10.4,60.3,0,0-18.9-38.6-70.7-55.5-9.2-3.2-49.3-10.8-49,20.9.5,18.8,23.4,27.3,63.3,42.8,52.3,20.5,79.1,39.6,66.8,94.6-11.8,52.8-63.4,61.5-88.5,61.5s-82.7-17.6-82.7-75.5,40.2-40,45.1-27.7h0ZM1259.4,1628.5l21.1,10c12.2,4.7,19.9,2.6,22.7,1.5,2.9-1.3,14.1-13.2,16.5-23.4,1.1-4.2.5-7.8-1.7-10.4-8.2-9.7-22.7-54.4-28.1-78.6-2-9,.4-33.7,2.3-53.6,1.6-17.1,2.7-27.7,1.8-30.5-1.4-4.2-7.8-8.3-15-12.9l-11.5-7.8c-6.1-5-6.4-11.9-6.7-19.2l-1.2-11.4c-2.7-10.6-56.7-65.8-65-66.3-12.1-.8-15.3,12.5-16.1,20.5-.5,4.7,4.9,25.6,9.8,44.1l5.4,22.3c5.5,35.1,42.9,97,58.8,123.4l7.6,12.8c3.3,7.4,2,13.3-3.8,16.6-5.6,3.2-54.2-1.8-77.4-7.2-10-2.3-22.3-7.3-34.3-12.1-13.7-5.5-26.8-10.8-34.3-11.2-8.8-.5-12.9,1.3-16.2,2.8l-5.3,1.5-5.2-1.7c-6.4-2.8-18.5-8-51.3-11-47.8-4.5-51.4,5.1-53.4,10.3-2.4,6.6,26.9,37.7,32.1,41.9,6.7,5.4,28.2,13.6,41.3,11.4,15-2.4,39.5-5.4,42.5-4.8l4.9,3,4.6,3.2c4.2,1.7,30.9,3.2,39,3.6,9.3.5,33.8,5.6,51.7,9.3l20,4c7.8,1.4,28,11.4,44.3,19.6h0Z"/>
        <path class="cls-4" d="M1754.3,1008c-1.1-1.3-1.9-1.4-2.5-1.2-.5.2-1.2.6-1.4,2.2-.9,6.7-9.2,23.8-15.9,26.3-13.4,5.2-20.4,21-25.5,32.5-2.6,5.9-5.1,11.6-7.1,11.7-.9,0-1.8-.9-2.8-2.8-8.3-14.3-3.6-36.1,0-53.8l.9-4.3c3-14.9,20.4-35.7,30.8-48.1l4.6-5.5c7.1-8.8,8.8-38.7,7.5-40.9-.4-.1-.7.1-.9.4-.2.1-.3.3-.4.5h-.2s0,.1,0,.1c-.4.5-.8.5-1.1,2-1.9,9.3-18.9,28.3-48.1,53.5-6,5.2-12.8,14.5-18.4,22-3.6,4.9-7.8,10.6-8.9,10.9-7.2-38.5,5.8-60.6,12.1-71.2l2.9-5.4c12.3-33.6,44.1-59,44.4-59.2.4-1,.4-2-.4-2.7-1.2-.9-3.5-.5-7,1.2l-1.9,1c-11.1,5.4-44.5,21.7-65,60.9-14.7,28.2-20.4,59.8-20.4,83.6s1.5,22.2,4,28.9c7.2,19.2,19.8,66.9,23.7,85.6,2.4,11.6,2.8,51.5,2.8,76.4s0,20.8,0,21.1c0,0-6.4,20.3-6.4,20.3,0,.2-3.1,16-28.9,42.5-26,26.6-55,35.1-55.3,35.2-11.6.9-22.3.4-22.6-1.1,0-30.4-52.1-101.1-78.7-124.5-27.2-23.8-48.9-40.9-85.8-63.4-37.6-22.9-79.4-118.8-79.9-119.7l-3.6-13s-2-25.9-2.6-32.6c1.4.8,3.1,1.9,3.1,1.9l12.8,7.5,14.7,5.7c.1,0,19.3,3.8,19.3,3.8,0,0,10.7,5.5,10.7,5.5l9.9,6.5,15.4,11.2,15.9,8.3c.3,0,19.1,1.1,19.1,1.1l.4-1.5s-21.7-10.2-21.7-10.2c0-.3-7.8-13.7-7.8-13.7-3-4.4-6.1-8.7-9.1-13.1-.3-.2-11.3-6.8-11.3-6.8-4.6-.7-9.3-1.4-14-2,0-.1-2.7-2.5-4.2-3.7,1.2-.7,3.5-2.1,3.5-2.1,0,.2,14.9,1.9,15,1.9,0,.2,13.3,9.2,13.3,9.2l14.5,11.2c.2.1,13.7,5.4,13.7,5.4l1.8.7-5.9-15.4c-3.7-3.6-7.4-7.1-11.2-10.6l-16.4-14c-.1-.1-12.9-6.7-12.9-6.7-.1,0-13.8-4.6-13.8-4.6,0,0-14.4-9.2-14.4-9.2,0,0,.2-1,.3-1.8,1.8.7,20,8,20,8,.1,0,17.4,4.7,17.4,4.7,0,0,14.5,5.6,14.5,5.6,0,0,20.9,10.2,20.9,10.2.2,0,17.5,3.9,17.5,3.9.3,0,21.4-3.8,21.4-3.8.3-.1,20.4-14.1,20.4-14.1.2-.4,3.9-8.7,3.9-8.7l.8-1.9-6.5,2.7c0,0-18.2,9.2-18.3,9.2l-12.6,2.8c0,0-14.2-2.9-14.2-2.9h0c0-.2-11.5-10.9-11.5-10.9l-16.4-15.8-14.8-7.6c-.2,0-17.5-2.9-17.5-2.9,0,0-10.5-5.4-10.7-5.5,0,0,0-.2,0-.5,0-1.3-.3-4-.5-5.3l21.8,1.8,23.8-1.9c0,0,13.4,2.8,13.4,2.8l13.6,5.6,13.9,1.9,2.5.3-15.5-14.8c-.2,0-15.6-11.3-15.6-11.3-.2,0-13-4.8-13-4.8-.2,0-21.6-1.9-22-1.9.2,0,.2-.4.2-.9,0-1.3-.2-3.1-.3-4.1l10.1-1.7c0,0,16.1,3.7,16.1,3.7,0,0,15.3,9.2,15.3,9.2l16.5,5.6c.5,0,24.1-3.7,24.1-3.7l1.4-.2-7.2-9.5c-.4-.3-12.3-4-12.3-4,0,0-9.8-7.3-9.8-7.3l-14.6-10.3c-.2-.1-11.1-3.8-11.1-3.8-.2,0-17.4-2.8-17.4-2.8,0-.2-8.5-8-8.6-8.1.3,0,.8-2.8,1-4l9.1,2.5,11.7,5.6,16.6,5.3-3.7-7.3-6.5-6.7-5.7-7.3,2.5-.6c0,.2,17.7,9.2,17.7,9.2l13.8,4.7c0,0,10.6,10.1,10.6,10.1.2.1,20.3,11.5,20.3,11.5l2,1.1-3.7-9.8c-.1-.2-11-14.2-11-14.2l-9.1-15.7c0-.2-16.5-16.9-16.5-16.9-.2-.2-21.1-11.3-21.2-11.3,0,0-8-9.1-8-9.1-4.9-5-9.8-9.9-14.6-14.9,0-.2-1.5-5.3-2.3-7.9,2.5.8,14.2,4.7,14.2,4.7l16.4,4.6s11.7,7.3,11.7,7.3c0,0,9.8,11.9,9.8,11.9.4.3,15.9,6.8,15.9,6.8l39.6,5.1,2.3.3-10.9-11.4c-.3-.2-21.3-9.5-21.3-9.5l-12.6-9.2c0-.2-7-12.8-7-12.8l-7.3-13c-.1-.2-12-11.4-12-11.4-.2-.1-14.8-8.5-14.8-8.5l-14.4-12c0-.1-3.5-7.3-5.7-12.1l10,9.7,19.2,16.8c.2.1,14.9,6.7,14.9,6.7l12.5,10.1,14.5,14.8c.5.2,23.2,3.4,23.2,3.4l2.8.4-23.1-20c0-.4-5.2-16.4-5.2-16.4-4-3.9-8-7.7-12.1-11.5l-6.3-7.4c0-.2-6.3-19.2-6.3-19.2-4.3-4.5-8.6-8.9-13-13.3,0-.1-20.8-19.5-20.9-19.6h0c0-.3-.7-3.3-1.2-5.3,1.6.8,3.8,2,3.8,2l19.1,11.1c.2,0,23,6.6,23,6.6l23.8,5.6,27.5,4.4-6.5-13.1c-.5-.4-14.1-6-14.1-6l-12.7-7.4c-.1,0-15.6-6.6-15.6-6.6l-13.6-5.6c0-.1-8.8-11.5-13.8-17.8,4.7,3.2,12,8.1,12,8.1.4.1,12.3,1.1,12.3,1.1h37.4c0,.1,15.1,8.3,15.1,8.3,0,0,12.9,14,12.9,14l1.7,1.8-1.6-15.7c-.2-.5-8.4-10.7-8.4-10.7-.2-.2-22.2-12.3-22.2-12.3l-17.4-6.6c-.1,0-26.4-4.7-26.5-4.7h0c0-.3-5-6.3-5-6.3-.1,0-19.2-17.7-19.2-17.7-3.1-1.6-6.2-3.2-9.3-4.8,0,0-2.9-3-4.7-4.9h9.8c0,.2,15.1,9.2,15.1,9.2.1,0,20.2,6.6,20.2,6.6l25.7,3.7h0c0,.3,9.5,10.9,9.5,10.9l13.9,8.5c5.3,1,10.5,1.9,15.8,2.8l2.2.4-32.5-39.8c-.2-.2-15.7-8.6-15.7-8.6-.1,0-18.3-5.7-18.3-5.7,0-.2-16-18.4-16-18.4-.2-.2-20.3-12.3-20.3-12.3-4.9-1.2-9.7-2.4-14.6-3.6.9-1.5,3.9-6.4,3.9-6.5,0,.1,16.1-7.1,16.1-7.1,0,0,23.5-4.6,23.5-4.6.6-.5,2.4-6.2,2.4-6.2-.3-.9-10.3-7.5-10.3-7.5-4-1.3-8-2.6-12-3.8-.7,0-7.1,3.8-7.1,3.8,0-.1-19.7.8-19.7.8,0,0-23.5-5.5-23.5-5.6,0-.1-24.2-20.3-24.2-20.3-3.7-1.9-7.4-3.8-11.1-5.7-.3,0-40.3-4.7-40.4-4.7,0-.5-9.4-14.5-9.4-14.5l-12.9-14.1c0,0-16.4-14.8-16.4-14.8l-.5,1.1-5.5,12.1c0-.1-5.4,8.3-5.4,8.3v.2c0,1.5.8,9.6.8,9.6.2.5,5.5,5.9,5.6,6.1-.3,0-2,8.4-2,8.5,0-.6-21.9.3-22,.3,0-.1-17.9-8.3-17.9-8.3-.1,0-13.8-4.7-13.8-4.7-.3,0-32.2.9-32.2.9-.7.4-6.1,8.7-6.1,8.7l-.7,1.1,14,2c0,0,2.1,1.4,3.2,2.1l-3.6,2.9c0-.2-19.5-1.1-19.5-1.1-.3,0-14.1,5.6-14.1,5.6l-1.4.6,6.8,4.6c.4.2,29.6,1.1,29.6,1.1l21.7,5.6h0c0,.3,4.1,6.2,4.1,6.2,0,0,2.9,4.1,4,5.8l-9.3,5.1c.1,0-26.4,11.2-26.4,11.2l-54.7,30.7c0,0-36,5.3-36,5.3-.3,0-14.1,7.8-14.1,7.8-.3.2-11.4,15.6-11.4,15.6-.1.2-6.4,19.3-6.4,19.3-.5,32.5.8,33.3,1.3,33.5,1.1.7,10.5,6,17.7,2.1,8.2-4.5,25.8-8.9,35-10.8,4.5-.9,6.6.7,7,2.4.5,1.8-.9,4.3-4.2,5.2l-1.9.6c-15.9,4.3-32.1,9.5-31.6,15.7l2.8,4.7c7.1,5.2,25.5,2.7,35.3.5l10.2-2.9c8.8-2.7,18.8-5.7,27.4-4.7,4.9.6,9.3,2.7,14.4,5.1,7,3.4,15,7.2,26.8,8,19.8,1.4,33.4,5.4,34.4,6.5,2.7,5.4.9,13.4-.4,19.8l-1,5.8c-5.6,50.3-61.7,107.2-88.8,134.5-7.3,7.4-12.2,12.3-13.2,14.3l-3.1,7.2c-2.6,6.7-4.8,12.4-13.4,15.9-5,1.9-16.5,10.6-30,20.7-19.4,14.5-43.5,32.5-50.1,31.7-11.1-1.3-62.9-37-65.1-39.2-50.4-48.8-71.5-38.8-84.2-32.8l-2,.9c-15,6.8-30.8,49.5-32.3,58.6l-6.1,26.3-4.7,19.3c-1.4,6.5-7.6,22.6-13.5,38l-12.2,33.7c-2,7.8-6.9,18.8-10.9,27.7l-5.4,13.1c-3.7,15.4-3.8,99.9,2.7,107.4l.3.3,1.3.4c6.5-.7,20.6-15.2,27.4-22.2l1.6-1.6c5.7-5.7,11.8-21,11.8-27.5s-2.9-19.5-4.1-23.1c-9.1-27.9-5.7-54.5-4-67.2l.7-5.7c.5-5.9,6.4-12.5,12.2-18.7l7.3-8.4c4-5.3,8.4-7.1,12.4-8.7l6.5-3.7,1-1.1c4.3-4.3,11.5-11.6,14.7-21.4l6.2-26.7,1.3-7.1c.3-1.4,1-2.2,2.2-2.5,2.5-.5,6.1,1.4,7.7,3.5l44.6,51.8c11.4,9.7,23.2,21.4,23.2,23.9v.2s-.3,0-.3,0c-6.3.6-37.7-6.1-42.9-7.5-42.7-12.5-62.2-10.3-77.3,8.5-17.1,21.6-11.8,87.6-8.2,94.9,3.2,6.6,18.9,87,19.6,97.8.7,10.5,4.8,29.3,9,33.6l1.2,1.2c5.3,5.2,19.1,19.2,21.6,32.9,2.6,15,34.4,55,46.6,58.6,1.8.5,3.8.1,5.3-1,9.2-6.6,13.4-38.6,14-52.2.6-16.9-5.5-25-11.9-33.8l-2.5-3.4c-4.7-6.5-13.1-8.8-18.6-10.3-2.3-.7-5.6-1.4-5.6-2.2s-.6-25-8.5-29.7c-6.1-3.8-12.4-27.6-13.2-36.7-.7-9-4.2-30.8-8.9-40.3-4.7-9.6-8.7-27.3-6.7-40.9.8-5.9,5-7.7,8.4-8.2,5.9-.9,12.6,1.6,13.7,3.6,2.3,4.7,47.4,31.9,62.6,37.7,9.4,3.6,22.2,14.4,33.5,24,8,6.7,14.9,12.5,19.2,14.6,5.8,2.8,22.3,3.1,35.5,3.4,7,.1,14.3.3,15.3.9-5.4,2.2-5.3,11.6-4.9,14.6,5.5,38.9,147.2,145.9,158.1,151.9,12.7,6.8,58.2,54.3,62.2,60.8,4.1,6.4,8.1,13.3,7.4,18.7-1.1,7.9,2.1,16.9,8.4,24.3,6.1,6.9,14,11,21.3,11s10.6-5.7,13.7-9.8l.7-.9c8.5-11.2,21-27.6,22.6-53.2,1.7-26.3,13.7-36.7,17.7-37.4,1.8-.3,3,.2,3.5,1.4.5,1.2-.1,3.2-2.5,4.8-5.2,3.5-8.4,15.1-12,27.6,0,.1-1.3,12.7-1.3,12.7-.3,9.4-.7,20.1-10.1,30.4-14.1,15.2-30.2,50.3-34.4,94.7-2.5,26.7,9.5,65.2,35.7,114.2l1.8,3.5,7.1,11.9c7.2,11.5,19.2,30.7,18.6,35.2-.8,6.3-1.4,11.3-12.3,25-12,15.1-55.8,66.1-60.1,66.9-8.7,0-10.2,1.1-17.2,6.4l-7.4,5.6c-8.1,5.7-9.5,10.1-10.9,13.9-1,2.9-1.9,5.4-5.7,8.2l-2.8,1.9c-.6.5-2.2,2.7-19.8,20.4-20.2,20-29.2,42.6-26.1,65,1,7,7,9.5,25,10.3,17.9.8,58.9-27.9,60.8-37.2l.6-3.6c1.6-8.4,4.2-22.6,8.8-24.7,5.6-2.5,15.2-13.5,22.2-21.6l1.4-1.5c3.7-4.3,4.7-8.6,5.6-12.7.8-3.2,1.5-6.5,3.6-9.5,1.7-2.2,4.1-3.4,7-4.7,5.4-2.6,12.3-5.9,17.2-18.3,4.9-12.2,34.3-33.2,55.7-48.5,10.9-7.8,19.5-14,21.6-16.7,2.8-3.7,4.5-10.7,4.5-18.2s-2.4-18.4-8-23.6c-8.1-7.5-15.8-30-18.1-37.1v-.2c0-2.9-.3-8.3-.7-18.2,0-.5,0-.9,0-1.4,0-26.3,39.1-52.1,56-63.1l7.7-5.3c61.2-54,73.2-95.1,75.5-106.3l1.2-13.5c.4-9.4.7-18.3,6.3-19.4,2.2-.4,5.9,1.3,8.1,4,1.3,1.4,3.1,4.4,1.9,7.9-2.8,7.6-3.7,83.7-3.7,86.9.2.5,6.6,8.1,6.6,8.1l1.2,1.4.4-1.8c0-.9,3.6-21.6,3.6-29s13.2-43.4,16.4-44c0,.1.2.4.2.4,1.5,4.9,3.5,16.9,3.5,29.5s-1.9,25.5-7.9,33.1c-9.2,11.3-16.5,29.3-21.2,41.2l-4.4,10.1c-.5,1.4-.7,2.9-.6,4.4,0,9.6,5,30.2,8.2,34,.9.9,1.5.9,2,.7,1.1-.4,2-1.8,2-9.9,0-30.8,25.9-53.1,26.2-53.3,22.8-18.1,27.8-51.6,27.8-77.2s-2.8-34.1-2.9-34.5c-3.6-5.3-7.3-10.7-10.9-16,.5.3,3.5-2.2,4.5-3,1,1.3,11.4,15,11.4,15,1.8,2.5,6.2,9.6,6.2,12.4,0,15.8,2.4,26.7,4.2,34.6l.4,1.9c1.8,8.4,13.2,35.4,13.7,36.5l1.2,2.8.4-3.1c0-.1,1.8-14.2,0-26.3-1-6.8.3-15,1.6-24l2.1-20.5c0-16.7-2.4-27.2-8.3-36.8l-3-4.6c-1.2-1.9-2.4-3.7-2.2-4.1l2.2-1c48.2-16.3,70.6-51.8,79.7-71.4,9.6-20.8,10.1-52.8,10.1-59s-.4-49.7-7.3-71c-4.1-12.6-2.8-26.2-1.4-40.8l1.5-25c0-17.1,9-29.9,17.8-42.2l10.4-16.1c6.8-13.4,3.2-25.2.5-28.6h0Z"/>
        <path class="cls-4" d="M1215.3,471.7c.8,0,11-4.8,11-4.8.5-.9-1.9-10.6-1.9-10.6-7.4-8.8-14.8-17.5-22.3-26.2l-1.1-1.3-.4,1.6-2.4,10.5c0-.1-7.1,16.8-7.1,16.8l-.3.7,14.9,7.6,9.5,5.6h0Z"/>
        <path class="cls-2" d="M1219.7,538.9c2.4.9,5.9.5,9.3-1,5.2-2.4,8.2-6.6,6.9-9.5l-2.4-2.1c-2.3-.9-5.9-.5-9.2,1-4.4,2-7.3,5.3-7.3,8s.1,1.1.3,1.5l2.3,2.1h0ZM1308.8,502.2l4.3,2.3c.7,1.5,2,2.6,3.6,3,1.8.4,3.7,0,5.2-1.3,1.1-.9,1.4-2.6.7-4.7-1.1-3.5-4.8-7.4-8.8-7.4s-9.8.6-9.8,4.3c0,2.1,2.4,2.9,4.8,3.7h0ZM1313.9,517.2c-2,1.5-2.8,3.4-2.3,5.4l.4,1.6c.5,1.9.7,2.3,2.5,2.6l3.2.6c4.2,1.1,10.7-1.5,12.2-4.8.5-1.1.9-3.2-1.9-5.1-4.9-3.2-10.9-2.5-14.1-.2h0ZM1327.2,574.9c-1.2-.6-.7-2.5.2-5.2.7-2.2,1.4-4.4.3-5.6-1-1-2.8-.9-5.9.2-11,4-12.7,15.2-13.9,23.4l-.4,2.5c-.6,3.7,1.2,4.9,2.4,5.3,3.8,1.3,10.7-2.1,12.2-4.7,1.7-2.8,11.2-5.4,18.2-7.3l2.7-.7c3.2-.9,4.9-2.1,5.1-3.8.4-2.2-2.1-4.2-4.2-5.5-2-1.2-5-.3-8.1.6-3.1.8-6.4,1.7-8.6.8h0ZM1210.7,579.1c2.4-.2,4.3-1.2,5.6-2.9,3.5-5.2,3.7-12.7.3-19.4-3.3-6.4-8.9-10.5-14.7-10.7h0s-1.3-.1-1.3-.1l-10.6.8c-5.6,1.2-10.8,5.4-12.1,9.5-.6,2.1-.3,3.9,1.1,5.4,8.5,9,23.2,18.2,31.6,17.6h0ZM1106.2,570.6c1.3,3.1,7.1,3.5,15.6.9l1.9-.6,15.3-6,22.2-14.6c.6-.5,6.4-4.9,5.3-7.7-.8-1.8-3.7-1.5-5.8-1.1-6.1,1.1-12.1,4.1-18.5,7.2l-9,4.2-4,1.6c-13.7,5.7-25,10.8-22.9,16h0ZM1059.5,586.8c-4.6,0-6.7,2.5-8.4,4.7l-2.1,2.3c-3.6,3-4.6,10.4-4.2,16,.2,2.3.8,6.6,3.1,7.9,4.4,2.7,6.5.8,11-3.5l3.5-3c4.4-3.7,9.5-7.9,10.2-14.3.3-2.7-.3-5-1.9-6.7-2.7-2.9-7.6-3.6-11.3-3.6h0ZM1085.1,588.9c-1.3-.3-2.1.1-2.5.6-1.3,1.3-.8,4.1-.4,6.4l.3,1.6-.3.9c-.3.8-.6,1.8,0,2.7.6.9,2,1.2,4.3,1.2,3,0,3.3-.3,4.3-3l.8-2.1c.7-1.8.7-3.4,0-4.7-1.2-2.3-4.3-3.2-6.6-3.6h0ZM1109.7,628.9c3.4-.2,6-3,5.8-6.4-.1-3.1-2.7-5.7-5.8-5.8-3.3,0-6,2.7-6,6,0,0,0,0,0,0,0,3.4,2.7,6.1,6,6.1h0ZM1220.9,614c-1.7-.3-3.5.3-4.6,1.7-1.6,1.9-11.7,8.8-19,13.8l-9.5,6.7-.8.7c-1.2,1.1-1.8,1.8-1,4.1l1.2,1.6,2.5-.5,3.7-1.4,5.3-.8c5.2-.7,10.9-1.5,13.6-4.2l3.5-5.7,5.2-8.4c2.5-2.8,2.6-4.7,2.3-5.7-.4-1-1.3-1.8-2.5-2ZM1231.9,647.9c0,3.1,1.5,4.3,2.4,4.7,2.3,1.2,5.7,0,7.7-2.8l6.8-5.9c3.7-2.6,7.8-5.6,11.4-10.3,3.4-4.3,1.9-7,.7-8.2-2.3-2.3-7.1-2.8-8.7-1.5l-2,1.3c-4.4,2.9-15,9.7-17.6,18-.5,1.4-.8,2.9-.8,4.4h0ZM1276.2,644.6c-1.4-2-3.8-2.9-5.6-2l-4.8,3.6c-3.4,2.7-7.6,6.2-11.2,7.3-8.8,2.4-20.8,6.3-21.6,12.4v.8c0,1.7.7,2.7,1.5,3.2,3.4,2.7,11.5,1.1,17.4-1.1,9.1-3.3,14.6-7.4,21.7-13.9,4.4-4,4.2-8,2.6-10.3h0ZM1241.8,714.5l-2.9-.3c-7.4,2-20.2,23.9-29.1,40.2l-1.6,2.8-26.7,50.2-8.4,16c-.9,1.5-.6,3.6.8,5,1.3,1.3,3.6,2,6.3.3,4.5-3,20.7-19.1,28.3-31.8l10.1-13.9c6.4-8.4,13.8-17.8,18.1-29.1l1.5-3.9c10.2-26.5,11.8-30.5,3.6-35.5h0ZM1342.4,618c-3.2,0-5.9,2.5-5.9,5.7,0,0,0,0,0,0,0,3.1,2.7,5.7,5.9,5.7s5.9-2.5,5.9-5.7c0-3.2-2.7-5.7-5.8-5.7,0,0,0,0,0,0ZM1339.6,641.7c0,3.1,2.7,5.7,5.9,5.7,3.2,0,5.8-2.5,5.8-5.7,0,0,0,0,0,0,0-3.2-2.6-5.7-5.8-5.7-3.2,0-5.8,2.5-5.9,5.7ZM1345,654.2c-3.7,0-6.8,2.5-6.8,5.4s3.1,5.4,6.8,5.4,6.8-2.4,6.8-5.4c0-2.9-3-5.4-6.8-5.4ZM1344.7,669.9c-4.3,0-7.7,2.7-7.7,6s3.4,6,7.7,6,7.6-2.7,7.6-6-3.3-6-7.6-6ZM1345,689.9c-4.7,0-8.6,2.8-8.6,6.3s3.9,6.3,8.6,6.3,8.5-2.8,8.5-6.3-3.8-6.3-8.5-6.3ZM1342.1,723.3c5.3-.5,9.2-3.4,8.9-6.8l-1.7-3.1c-1.8-1.5-5-2.3-8.3-2-5.1.5-8.9,3.2-8.9,6.4v.3s1.8,3,1.8,3c1.9,1.6,4.9,2.4,8.2,2h0ZM1330.5,740v-.2s0,.2,0,.2ZM1341.8,744.3c6-.9,10.2-4.2,9.7-7.5l-1.8-2.8c-2.1-1.6-5.8-2.2-9.6-1.7-5.8.8-10.2,4.2-9.7,7.5l1.8,2.8c2.1,1.6,5.7,2.2,9.5,1.7ZM1331.8,754.5c0,3.7,4.5,6.6,10.3,6.6s10.2-2.9,10.2-6.6-4.4-6.6-10.2-6.6c-5.9,0-10.3,2.9-10.3,6.6ZM1350,775.9c0-3.9-5.3-6.9-12.1-6.9s-12,3-12,6.9,5.3,6.9,12,6.9,12.1-3,12.1-6.9ZM1342.3,794c0-3.8-4-6.9-8.8-6.9s-8.9,3.1-8.9,6.9,4,6.9,8.9,6.9,8.8-3.1,8.8-6.9ZM1338.1,816.7c0-4.3-4.2-7.8-9.4-7.8s-9.4,3.5-9.4,7.8,4.2,7.8,9.4,7.8,9.4-3.5,9.4-7.8ZM1330.5,838.7c0-3.8-3.4-6.9-7.7-6.9s-7.7,3-7.7,6.9,3.5,6.9,7.7,6.9c4.2,0,7.7-3.1,7.7-6.9ZM1317.2,851.8c-4,0-7.4,3.1-7.4,6.9s3.3,6.8,7.4,6.8,7.3-3.1,7.3-6.8c0-3.8-3.3-6.9-7.3-6.9ZM1311,884.9c4.2,0,7.7-2.7,7.7-6s-3.5-5.9-7.7-5.9-7.6,2.6-7.6,5.9,3.4,6,7.6,6ZM1303.9,899.4c3.9,0,7-2.2,7-5.1s-3.1-5-7-5-7.1,2.2-7.1,5,3.2,5.1,7.1,5.1ZM1297.1,913.3c3.7,0,6.8-2.3,6.8-5.1s-3.1-5.1-6.8-5.1-6.8,2.3-6.8,5.1c0,2.8,3,5.1,6.8,5.1ZM1097.1,901l1.2.2,9.2-1.7c8.2-1.8,20.5-4.6,35.7-5,11.1-.3,23.1,3.6,31.9,6.4,7.9,2.6,11.9,3.8,13.4,2.2.9-1.1.4-2.6-.2-3.7-2.4-5.1-12.8-22.1-47-22.9-22.2-.5-40.2,14.6-44.1,20.9-.8,1.3-1,2.3-.6,3l.3.5h0ZM1224,965.1c2.2-1.4,3.1-3.8,3-7.4-.7-13.8-4.4-15.4-12-15.4s-13.3,7.7-13.3,11.8,2.8,7.1,8.2,9.8c3,1.6,10.1,3.9,14.2,1.2h0ZM1328.6,1133.8c11,5.1,14.9,7,16.5,7.5,0,0,.1.2.1.2,0,0,0,0,0,0,.8.2,1,.1,1.2-.1-.1,0-.5-.7-.8-.9.1-.1.3-.4.3-.4,0,0-.7-.3-.7-.4-7.3-9.2-51.1-71.5-60.4-112.5-1.5-6.8-3.2-13-7.6-15.6-2.5-1.4-5.6-1.5-9.4-.2h0c-.9.3-1.5,1-1.9,2-.4,1.2-.5,2.4-.5,3.6,0,14.6,15.6,55,20.7,63.2,28.2,45.8,42,53.3,42.5,53.6h0ZM1686.8,1151.6l-1.7.3c0,.3.4,12.5.4,28.2,0,22.9-.8,53.4-4.8,67.2-3.2,11.1-18,32.4-29.9,49.4,0,0-13.9,20.8-13.9,20.8-.4.7-.6,1.5-.6,2.3,0,2,1,4,2.9,5.2,1.4,1,6.4,3.4,13.4-4.9l8.8-9.4c11.8-11.8,26.5-26.4,36.8-58.7,11.3-35.4-11.4-99.9-11.6-100.5ZM1317.8,1267c1.1,1.1,2.8,1.4,4.6.7,2.8-1,4.8-3.5,5.1-6.5.4-4.4,3.5-10.4,8.1-15.5,5-5.7,4.6-14.2-.9-19.4l-5.9-2.3c-3.8.1-6.6,3.2-6.7,3.2-2,9.4-3.9,18.9-5.8,28.3h0c-.6,1.5-1.1,9,1.5,11.5h0ZM1508.8,1371.4h-.3c0-.1-.3,0-.3,0-.2.2-5.2,2.5-6.6,7.3-1,3.2.8,6.1,2.2,8.4l1.6,3.1.7,6.2,1.1,9.1c.6,1.9,2.4,3.2,4.4,3.1,2.3,0,5-1.9,5.9-5.4,1.2-4.9,1.8-11.5,1.8-20.2,0-8-10.2-11.3-10.6-11.4h0ZM1212.3,1297.7c-.7-.8-70.7-76.8-85.8-96.7-15.4-20.4-22.8-21.9-30.3-17.8-1.1.6-1.9,1.8-2,3.1-1.1,8.3,16.4,28.3,31.7,43.1,21.4,20.6,84.7,69.1,85.3,69.5l1.1-1.2h0ZM937.8,1073.4c-14.2-8.8-38.8-13.7-39-13.8l-.6,1.5,27.2,20.5c4.5,3.7,24.3,16,30.7,11,.8-.6,1.3-1.6,1.3-2.7-.2-3.7-7.1-8.6-19.6-16.5h0ZM931.2,957.1l1.9-.8c2.5-2.8-3.2-10.6-10.1-17-6.2-5.7-12.5-9.4-15.8-9.2l-1.9.8c-.4.5-.6,1.1-.6,1.7,0,3.6,4.9,9.9,10.6,15.2,6.2,5.7,12.5,9.4,15.7,9.2ZM1004,947.2l-2.8.2c-5.3,2.2-13.7,15.7-20.4,32.7-4.7,12-8.3,25.1-8.3,33s.8,6.3,2.6,7l2.7-.2c5.3-2.3,13.7-15.7,20.5-32.7,4.7-12,8.2-25.2,8.2-33.1s-.8-6.3-2.6-7h0ZM872.9,864.1c-6.8,0-12.3,3.2-12.3,7.3s5.4,7.3,12.3,7.3,12.3-3.2,12.3-7.3-5.4-7.3-12.3-7.3ZM829.3,954.9l2.1-.2c3.7-1.8,9.3-11.9,13.5-24.4,4.5-13.3,6.9-27.7,2.6-29.2l-2.1.2c-3.8,1.9-9.3,11.9-13.5,24.4-4.5,13.4-6.8,27.7-2.6,29.2h0ZM840.7,1023.9c3.6-4.9,4.4-10.3,1.7-12.4l-3.1-.7c-2.6.3-5.7,2.5-8.1,5.8-3.6,4.9-4.4,10.3-1.7,12.3l3.2.7c2.6-.4,5.8-2.6,8.1-5.8h0ZM836.5,1099.5l-.3-.2h-1.4c-4.9,1-1.5,22.3,1.1,33.6,3.6,15.7,8.5,28.3,11.8,30.4l.3.2h1.3c5-1,1.5-22.5-1.1-33.6-3.6-15.8-8.4-28.4-11.8-30.5h0ZM787.1,1128.2c-4,0-7.1,2.9-7.1,6.6s3.2,6.4,7.1,6.4,7.2-2.9,7.2-6.4c0-3.7-3.3-6.6-7.2-6.6ZM908.5,1283.2c-4.6,0-8.3,3.6-8.3,8.2,0,4.4,3.7,8.1,8.3,8.1,4.5,0,8.3-3.5,8.4-8.1,0-4.6-3.8-8.2-8.4-8.2ZM1318.7,1499c.3.4,1,1.8,2.2,1.6h.5s.9-1.3.9-1.3l7.5-22.9,5.9-15.3,5-11.6c1.5-3.9,1.5-6.5,0-8-2.4-2.2-7.4-.3-8-.1-.4.3-14.1,23.3-14.1,23.3-2.7,4.1-3.7,9.6-3.7,15.3,0,8.1,2,16.2,3.9,19.1h0ZM1353,1613.6l.3-2.3c.2-1.4,4.3-33.3-5.5-45.6-2-2.7-5.1-4.4-8.5-4.7-2.9-.3-5,.6-6.1,2.4-6,9.8,17.5,46.6,18.5,48.2l1.2,2h0ZM1408,1674.3c-4.7,0-8.6,3.7-8.6,8.4,0,0,0,0,0,0,0,4.7,3.9,8.4,8.6,8.4s8.4-3.8,8.4-8.4-3.8-8.4-8.4-8.4h0ZM1278.6,1571.5c-4,0-7.5,3.1-7.5,7s3.4,7,7.5,7,7.4-3.1,7.4-7-3.3-7-7.4-7ZM1372.9,1695.9l-.9-.2c-4.5,0-21.3,14.8-35.7,29.5-1.3,1.3-32.5,33.4-28.4,37.6l.2.3,1,.2c4.5,0,21.4-14.8,35.7-29.5,1.3-1.4,32.7-33.3,28.4-37.6l-.3-.2ZM1279,1782.6c-2.6,0-6.7,2.4-10.3,6.1-4.4,4.4-7.5,10.4-5.2,12.9l.2.2-.2-.2,2.3.8c2.7,0,6.8-2.4,10.4-6.1,4.3-4.4,7.5-10.3,5.1-12.8l-2.3-.9ZM1237.8,1841.9c-3.2,0-7.7,2.6-11.7,6.6-4.1,4.2-6.5,8.7-6.5,11.9s.3,2.2,1.1,2.9l2.9,1.1c3.2,0,7.8-2.6,11.7-6.6,5.7-5.9,8.1-12.2,5.4-14.9l-2.9-1.1ZM1022.5,1543.1c-6.2,0-11.2,3.5-11.2,8s5,7.8,11.2,7.8,11.2-3.4,11.2-7.8c0-4.4-5-8-11.2-8ZM1113.7,1549.5c-4.4,0-7.8,2.4-7.8,5.5s3.4,5.3,7.8,5.3,7.7-2.4,7.7-5.3-3.5-5.5-7.7-5.5ZM1225,1586.7l.7-1c1.3-5.2-25-13.4-39-17-16.8-4.3-36.9-7.8-41.3-5.1l-.3.2-.7,1.1c-1.3,5.3,25,13.4,39,17,16.8,4.2,36.9,7.6,41.3,4.9l.3-.2h0Z"/>
      </g>
    </g>
  </g>
</svg>