<?xml version="1.0" encoding="UTF-8"?><svg id="Layer_2" xmlns="http://www.w3.org/2000/svg" viewBox="0 0 199.94 178.51"><defs><style>.cls-1{fill:#e6002d;fill-rule:evenodd;}</style></defs><g id="Layer_1-2"><path class="cls-1" d="M111.68,158.08c-18.52,0-35.23-7.47-47.53-19.58h19.1s54.9-97.83,55.1-98.22c.27-.4.13-.66-.25-.66h-22.41c-.45,0-.52.14-.65.33-.13.2-30.95,54.48-30.95,54.48h-40.27c-.13-1.72-.19-3.45-.19-5.17,0-37.98,30.43-68.83,68.05-68.83,19.16,0,36.52,8.06,48.88,21.02-5.37,9.17-29.46,50.55-32.7,56.57-1.88-4.39-10.56-3.53-15.02-3.61-1.95,3.27-11.07,20.7-11.07,20.7,0,0,5.04-.06,9.58,0,4.41.07,4.93,4.71,3.18,7.66-1.75,2.95-8.94,15.71-8.94,15.71h23.12s28.37-50.09,44.48-78.57c4.32,9.17,6.55,19.19,6.53,29.34,0,37.98-30.49,68.82-68.05,68.82M48.62,115.12h23.5l-11.34,19.84c-5.11-5.9-9.23-12.6-12.17-19.84M111.68,0C62.93,0,23.44,39.95,23.44,89.26c0,1.76.06,3.46.12,5.17h-11.52c-.65,0-.97.39-1.23.86-.19.46-10.42,18.66-10.69,19.12-.19.46-.19.72.33.72h26.74c10.94,36.67,44.61,63.39,84.49,63.39,48.76,0,88.26-39.95,88.26-89.25S160.44,0,111.68,0"/></g></svg>