<?xml version="1.0" encoding="UTF-8"?>
<svg xmlns="http://www.w3.org/2000/svg" version="1.1" viewBox="0 0 823.9 452.3">
  <defs>
    <style>
      .cls-1 {
        fill: #ff7f00;
      }
    </style>
  </defs>
  <!-- Generator: Adobe Illustrator 28.7.1, SVG Export Plug-In . SVG Version: 1.2.0 Build 142)  -->
  <g>
    <g id="Layer_1">
      <path class="cls-1" d="M426.5,451.4c3.6-4.9,7.3-9.7,10.9-14.6,22.5-30.5,43-62.2,56.6-97.8,6.2-16.3,10.5-32.9,11-50.5.8-32.2-12.9-56.5-39.9-73.5-21.1-13.3-44.6-19.8-68.8-23.9-44.2-7.5-88.6-6.8-133-3.2-71.7,6-142.6,19.4-211.6,39.9-15.9,4.7-31.5,10.5-47.3,15.9-1.4.6-3,.8-4.5.5,11.6-7.1,23.1-14.2,34.7-21.2,70.1-42.3,143.1-79.6,218.5-111.7,94.2-39.9,190.7-73,291-93.9C594.3,6.9,644.9-.4,696.3,0c27.4.3,54.5,2.7,80.5,12.1,12.8,4.7,24.7,11.1,33.7,21.6,15.5,17.9,15.8,38.4,9.5,59.8-6.9,23.5-19.9,43.9-34.4,63.3-28.2,37.5-61.6,70-96.6,101-62.9,55.6-130.4,105.1-199.5,152.6-20.6,14.1-41.4,28-62,41.9l-.9-.9Z"/>
    </g>
  </g>
</svg>