<?xml version="1.0" encoding="UTF-8"?>
<svg xmlns="http://www.w3.org/2000/svg" xmlns:xlink="http://www.w3.org/1999/xlink" version="1.1" viewBox="0 0 121 85">
  <defs>
    <style>
      .cls-1 {
        fill: none;
      }

      .cls-2 {
        fill: #e0e0e0;
      }

      .cls-3 {
        fill: #15151e;
      }

      .cls-4 {
        clip-path: url(#clippath);
      }
    </style>
    <clipPath id="clippath">
      <rect class="cls-1" width="121" height="85"/>
    </clipPath>
  </defs>
  <!-- Generator: Adobe Illustrator 28.7.1, SVG Export Plug-In . SVG Version: 1.2.0 Build 142)  -->
  <g>
    <g id="Layer_1">
      <g class="cls-4">
        <g>
          <path class="cls-3" d="M43.9,31.2h0s0,0,0,0Z"/>
          <path class="cls-2" d="M118.8,50.2c-.3-.3-.9-.9-3.3-2.1-.4-.2-1.7-.9-3.5-1.8-.6-.3-1.1-.5-1.7-.7-.7-.3-1.4-.5-2-.9-6.2-3.2-15.6-8.2-23.1-12.2-11.7-6.2-12.8-6.8-13.3-7-1.1-.4-4.7-2.1-5.7-2.6l-.6-.3c-1.9-1-7.4-3.9-10.5-5.5-1.3-.7-2.3-1.2-2.7-1.4-1.7-.9-3.6-.9-5.2,0-1.4.8-2.3,2.2-2.6,3.9-3.5.4-6.4,1-8.8,2-4.9,2-7.7,4.6-8.4,5.3-.8.8-7.9,7.3-11.9,11-4.3,4-7,7.9-7.1,8.1h0c-.2.4-6,9.1-7.1,10.8-1.2,1.8-1.5,4.1-.9,6.4.7,2.5,2.3,4.5,4.4,5.6,1.2.6,2.9,1.2,4.8,1.2s1.2,0,1.8-.2c4.9-1.1,6.8-4.5,7.5-7.1.8-3,2.7-10.5,3-12,0,0,0-.1,0-.2.7-.8,2.7-3,3.9-4.3.4,0,1.1,0,1.9-.2,0,.2,0,.4,0,.5,0,4.3,3,7,6.1,7.5.4,0,1.9.3,3.7.6.3,0,.6,0,1,0,2.6,0,4.8-1.4,5.9-3.7,1.1-2.3,1.4-4.6,1.4-6.1s.1-8.1.2-9.9c0-.3,0-.5,0-.7l5.3-2c-.2,7.8-.5,26.9-.5,29.3s.8,3.8,2.2,5.1c2,1.9,4.6,1.9,5.5,1.8,1.7,0,9.7-.6,11.8-.9,4.5-.7,6.1-3.4,7.7-7,.9-2,1.5-3,2.4-3.4,1.7-.6,2-.5,3.4.3.3.2.7.4,1.1.6,3.5,1.7,6,2.5,9,3,2.2.3,16,.8,19.5.9,3,0,5.5-1.5,6.9-4.2,1.2-2.5.6-5.4-1.6-7.6h0ZM52.8,31.8h0s0,0,0,0h0ZM117.1,56.2c-.7,1.4-2,2.2-3.5,2.2-5.6-.2-17.4-.6-19-.9-2.6-.4-4.8-1.2-7.9-2.7-.3-.2-.6-.3-.9-.5-1.7-.9-3.2-1.7-6.4-.5-2.4.9-3.5,3.1-4.4,5.3-1.8,3.8-2.8,4.6-5,4.9-2,.3-10.9.8-11.5.8-.3,0-1.7.1-2.8-.9-.4-.4-1-1.2-1-2.4,0-2.9.6-31.2.6-32.4h0c0-.4,0-.9-.2-.9-.5,0-1.5-.2-2.1-.1-.5,0-1,.2-1.2.3l-7.7,2.9c0,0-1.3.7-1.5,3.6-.1,1.9-.2,8.9-.2,10.1s-.1,2.8-1,4.5c-.6,1.2-1.8,1.8-3.2,1.7-1.8-.2-3.4-.5-3.5-.6-1.1-.2-3.1-1.2-3.1-3.9s.1-4,.1-4.1h0c0-.2,0-.4,0-.4,0,0-.1,0-.4,0-1.6.2-5.7.5-5.9.5h0s0,0,0,0c-.1,0-.9,0-1.7.9-1.2,1.4-4,4.5-4.3,4.9,0,.1-.5.7-.7,1.6-.3,1.3-2.1,8.7-2.9,11.7-1,3.7-3.9,4.3-4.9,4.6-.3,0-.7.1-1,.1-1.3,0-2.5-.5-3.2-.8-1.2-.6-2.1-1.8-2.5-3.3-.4-1.3-.2-2.5.4-3.4,1.1-1.7,7-10.6,7.1-10.7.1-.2,2.6-3.8,6.6-7.5,4.2-3.9,11.5-10.7,12-11.1.3-.3,2.7-2.7,7.3-4.6,2.7-1.1,6.1-1.8,10.6-2h.2s0,0,0,0c0,0,0,0,0,0,0-2.1.1-2.6.1-2.6,0-.2,0-1.1.8-1.5.3-.2.9-.3,1.7,0,.4.2,1.4.8,2.7,1.4,3.4,1.8,8.9,4.7,10.7,5.6l.5.2c1.2.6,4.9,2.3,6.1,2.8.4.2,4.1,2.1,12.9,6.8,7.5,4,16.8,8.9,23.1,12.2.9.4,1.6.7,2.4,1,.5.2,1,.4,1.4.6,1.9.9,3.1,1.6,3.3,1.7.6.3,2,1,2.5,1.5,1.1,1.1,1.4,2.4.9,3.4h0Z"/>
          <path class="cls-2" d="M112.9,52.9h0s-1.2-.7-3.2-1.6c-.4-.2-.9-.4-1.3-.5-.8-.3-1.7-.6-2.6-1.1-6.3-3.3-15.6-8.2-23.1-12.2-6.3-3.4-12.3-6.5-12.8-6.7-.9-.4-3.3-1.4-4.9-2.2h0s-1.3-.6-1.3-.6c-.8-.4-7.3-3.8-11.2-5.9-1.2-.6-2.1-1.1-2.6-1.4,0,.3,0,1-.1,2.4,0,.8-.4,1.3-.7,1.5-.5.4-1.1.3-1.3.3-4.2.2-7.5.8-9.9,1.9-4.4,1.8-6.7,4.2-6.7,4.2h0c0,.1-7.7,7.1-12,11.1-3.8,3.6-6.3,7.1-6.3,7.2,0,0-6,9-7.1,10.7-.3.5-.4,1.2-.2,1.9.3.9.9,1.8,1.6,2.1.5.3,1.9.8,3,.6,1.4-.3,2.9-.9,3.5-3.3.8-3,2.6-10.4,2.9-11.6.3-1.4,1-2.3,1.1-2.4h0c0,0,3.1-3.4,4.3-4.9,1.1-1.3,2.4-1.6,3.1-1.5.5,0,4.2-.3,5.7-.5,1.1-.1,1.7.3,2,.6.6.6.6,1.5.5,1.8,0,.3-.1,2-.1,3.9s1.3,2,1.5,2.1h0s1.7.3,3.5.5c.2,0,.9.1,1.3-.7.7-1.4.8-2.9.8-3.7s.1-8.2.2-10.2c.2-4.2,2.4-5.1,2.7-5.2l7.7-2.9c0,0,.9-.3,1.7-.4.8,0,2,0,2.6.2,1.4.3,1.7,1.9,1.7,2.7,0,.9-.6,29.5-.6,32.4s.1.8.4,1.1c.4.4,1.2.4,1.4.4h0c0,0,9.4-.5,11.4-.8,1.5-.2,2.1-.6,3.6-3.9,1-2.2,2.3-5,5.4-6.2,4-1.5,6.1-.4,7.9.6.3.2.6.3.9.4,3,1.4,5,2.1,7.4,2.5,1.4.2,12.5.7,18.8.9.8,0,1.5-.4,1.9-1.2.2-.5-.4-1.2-.5-1.3-.2-.2-1.2-.7-2-1.2h0ZM10.2,60.2c-.1.5-.2.5-.6.7,0,0,0,0,0,0,.3-.4.6-.9,1-1.5,0,.3-.2.6-.2.8h0ZM36.9,34.4c0,1.2-.1,3.9-.2,6.3-.2-.8-.6-1.6-1.3-2.4-.6-.7-2-1.8-4.2-1.8s-.5,0-.8,0c0,0-.1,0-.2,0,1.9-1.8,3.3-3,3.3-3.1h0c0,0,.1-.2.1-.2.2-.2,1.5-1.4,3.9-2.7-.4,1-.7,2.2-.7,3.7h0ZM95.4,52c-1.8-.3-3.4-.7-6.4-2.2-.2-.1-.5-.2-.7-.4-2-1.1-5.4-2.9-11-.8-4.5,1.7-6.3,5.5-7.4,8.1-.5,1-.8,1.6-.9,1.8-1.2.2-5.5.5-8.9.7.1-6.6.5-24.4.6-29,.7.4,1.2.7,1.4.8l6.6,3.4v-.4c1.3.7,6.9,3.6,12.3,6.5,7.3,3.9,16.3,8.6,22.5,11.9-4-.2-7.3-.4-8.1-.5h0Z"/>
        </g>
      </g>
    </g>
  </g>
</svg>