<?xml version="1.0" encoding="UTF-8"?>
<svg xmlns="http://www.w3.org/2000/svg" version="1.1" viewBox="0 0 121 85">
  <defs>
    <style>
      .cls-1 {
        fill: #e0e0e0;
      }
    </style>
  </defs>
  <!-- Generator: Adobe Illustrator 28.7.1, SVG Export Plug-In . SVG Version: 1.2.0 Build 142)  -->
  <g>
    <g id="Layer_1">
      <path class="cls-1" d="M120.2,15s0,0,0-.1c-.2-.5-1.1-2.4-1.8-3.8-.4-.9-1.7-3-4.1-3.8-1.5-.5-3.3-.4-5,.2-.2,0-.7.2-14.5,6.1-.5.2-1.7.6-2.4.8-1,.2-2.8.3-3.7.3-.3,0-.5,0-.6,0-.6,0-8.3.2-13,.3h0c-.3,0-1,0-1.3,0-.6,0-1.5-.2-1.9-.2-.5,0-5.8-1.1-9.1-1.7l-5.7-1.1v.4c-.7,0-1.5,0-2.1,0-3.8,0-12,1.3-15.4,1.8-1.5.2-6.6,1.8-6.6,1.8-1.1.4-2.1.9-2.9,1.6-1.1,1-1.8,2.4-2.2,4.3-.9.5-2.6,1.4-3.7,2h-.2c-.4.3-1.4.9-2.1,1.6-1.2,1.1-1.9,2.7-2.2,3.6-.2.5-6.7,18.8-8.1,22.5-.2.5-.6,1.7-.6,3.1s.3,2.1.4,2.6h0c0,.3.2.7.3,1-2.7,2.5-8.8,8-9.1,8.3h0c-1.5,1.5-3,4.3-2.1,7.4.9,3,3.6,5,6.7,5s.6,0,1,0c.5,0,9.8-1.6,17.6-2.9.7-.1,2.1-.3,2.6-.3,1,0,2,0,2.8.1.7,0,6,.9,8.1,1.2.9.1,3.5.4,5.8-1,1.9-1.2,3-3.3,3.5-4.2h0c.6-1.4,2.4-5.3,2.6-9.1.1-2.3-.5-4.4-.7-5.5,0-.1,0-.2,0-.3-.1-.6-1.6-6.1-2-7.8.1-.2.3-.6.6-1,.4.1.9.2,1.4.3.8.1,1.8,0,2.4,0,.4,0,16.5-.7,22.4-1,.6.6,1.4,1.2,2.6,1.6,2.1.6,3.9-.3,4.6-.7.6-.3,5.8-2.7,9.1-4.2h0c.3-.1,2.8-1.3,6.3-4.3,1.1-.9,3.8-3.7,4.5-4.4.7-.7,5.2-5.6,5.9-6.3.5-.5,1.1-1,1.4-1.2.8-.4,4.6-2.2,7.7-3.7.8-.4,3.2-1.7,3.9-4.3.6-2.3-.3-4.1-.6-4.9h0ZM117.1,19c-.3,1.1-1.5,1.7-1.7,1.8-2.9,1.4-7.5,3.6-8.1,4-.6.4-1.7,1.4-2.1,1.8-.3.3-5.2,5.6-5.9,6.4-.7.8-3.3,3.4-4.1,4.1-3.2,2.7-5.4,3.7-5.5,3.7-3.5,1.6-8.9,4.1-9.2,4.2h0c-.6.3-1.3.6-1.9.4-.8-.2-1.1-.9-1.4-1.5h0c0-.3-.4-.3-.4-.3h0s0,0,0,0c-1,0-23.8,1.1-24.2,1.1-.3,0-1.2,0-1.8,0-.6,0-1.1-.3-1.2-.3-.4-.1-1.4-.6-1.7-.7-.3-.1-.4-.1-.5-.1,0,0-.2.2-.3.3-.6.9-2,3.3-2.2,3.6h0c-.1.3-.5.9-.5,1.2,0,.2,0,.8.2,1.2h0c0,.3,1.9,7.3,2,8,0,.1,0,.2.1.4.2.9.7,2.6.6,4.3-.1,3.1-1.7,6.4-2.2,7.5v.2c-.5.9-1.2,2-2.1,2.6-1.2.8-2.9.5-3.2.5-.3,0-7.3-1.1-8.2-1.2-.9-.1-2.2-.2-3.4-.1-1,0-3.1.4-3.1.4-1.7.3-16.8,2.8-17.4,2.9-.2,0-.3,0-.5,0-1.7,0-2.7-1-3-2.2-.4-1.6.4-2.9,1-3.5.1,0,9.8-8.9,10.4-9.4.3-.3.4-.5.4-.7,0-.1,0-.5-.2-.9,0,0-.5-1.7-.7-2.2,0,0,0-.1,0-.2-.1-.4-.2-.8-.2-1.4s.3-1.6.3-1.8c.4-1,7.9-22,8.1-22.5.1-.3.6-1.5,1.3-2.1.5-.5,1.3-.9,1.4-1h0s3.7-2,4.3-2.3c.7-.4,1-.7,1.1-.9.1-.2.2-.6.3-1.2.3-1.8.8-2.3,1-2.5.4-.3.9-.6,1.5-.8.5-.2,5.1-1.5,6-1.6,2.6-.4,11.2-1.7,14.8-1.7,1.9,0,4.5.3,5.9.5h0s1.1.2,1.1.2c0,0,8.5,1.6,9.2,1.7.8.1,1.6.3,2.3.3.6,0,1.6,0,1.6,0h0c4.3-.1,12.5-.3,13.1-.3.2,0,.4,0,.6,0,1.2,0,3.1-.1,4.5-.5,1.3-.3,2.9-1,3-1,2.3-1,13.7-5.9,14.3-6.1,1-.3,1.9-.4,2.7-.2,1.1.3,1.7,1.5,1.8,1.8.2.3,1.5,3.1,1.7,3.6,0,0,0,.2.1.2.3.6.6,1.4.4,2.3h0Z"/>
      <path class="cls-1" d="M114.8,17.1c-.1-.3-1.1-2.3-1.7-3.5-.2-.3-.5-.7-.7-.8-.3,0-.8,0-1.5.1-.5.2-8.7,3.7-14.2,6,0,0-1.8.7-3.2,1.1-1.5.4-3.6.5-4.9.5-.2,0-.4,0-.6,0-.8,0-12.5.3-13.1.3-.1,0-1.1,0-1.8,0-.8,0-1.7-.2-2.6-.3-.6-.1-7.9-1.5-9.1-1.7h-.1s-4.1-.7-6.7-.7c-3.5,0-12.1,1.3-14.6,1.7-.7.1-5.1,1.3-5.8,1.6-.3.1-.6.2-.8.4,0,.1-.2.6-.4,1.3,0,.7-.2,1.5-.6,2-.4.6-1,1.1-1.8,1.5-.5.3-4,2.1-4.3,2.3-.3.2-.7.5-1,.7-.2.2-.6.8-.8,1.4-.1.4-5.3,14.9-8.1,22.5h0c0,.2-.2.7-.2,1.1s0,.5.2.8c0,0,0,.1,0,.2.1.4.7,2.2.7,2.2.2.5.3,1.2.3,1.6,0,.8-.4,1.4-1.1,2-.6.5-10,9-10.4,9.4,0,0-.7.7-.5,1.5.3.9,1.4.8,1.5.8.5,0,10.6-1.8,17.3-2.9,0,0,2.2-.3,3.4-.4,1.3,0,2.7,0,3.7.2.9.1,7.9,1.2,8.2,1.2h0c.3,0,1.3.1,1.8-.2.4-.2,1-1,1.3-1.8v-.2c1.4-2.7,2-5,2.1-6.7,0-1.4-.3-2.9-.6-3.7,0-.2,0-.3-.1-.5-.1-.5-1.4-5.4-2-7.9,0-.2-.3-1.2-.2-1.9,0-.8.5-1.6.8-2h0c.2-.4,2.1-3.5,2.2-3.7h0c.1-.2.7-1,1.4-1.2.8-.2,1.4,0,1.8.2.1,0,.9.4,1.6.6h0s.3.2.7.2c.5,0,1.3,0,1.5,0,.4,0,23.1-1,24.2-1.1.7,0,1.9.1,2.4,1.3h0c0,.3,0,.4.1.5.1,0,.3-.1.5-.2h0c.3-.2,8.3-3.8,9.2-4.3,0,0,2-1,5-3.5.7-.6,3.2-3.1,4-3.9.8-.8,5.9-6.4,5.9-6.4h0c0,0,1.5-1.5,2.4-2.1.9-.6,7.6-3.7,8.4-4.1h0c.3-.1.6-.4.7-.5,0-.3-.1-.7-.3-1,0-.1,0-.2-.1-.3h0ZM20.4,55s0,0,0,0h0ZM40.5,67.5s0,0,0,0h0s0,0,0,0ZM101.1,22.4l-.2.2s-5.2,5.6-5.9,6.4c-.8.9-3.1,3.1-3.6,3.6-2.4,2-4,2.9-4.2,2.9-3.6,1.6-5.8,2.6-7.1,3.3-1.2-.7-2.6-1-3.8-.9-8.2.4-23.6,1.1-24.1,1.1-.3,0-.6,0-.8,0-.5-.2-1.1-.4-1.3-.5-1.4-.6-2.8-.8-4.3-.5-2.1.5-3.3,2.1-3.8,2.8h0c-.6,1.1-2,3.4-2.2,3.8h0c-.6,1-1.1,2.2-1.3,3.6-.1,1.2.2,2.5.4,3.2.9,3.5,1.9,7.4,2,7.8,0,.1,0,.4.2.6.2.6.5,1.8.4,2.6,0,.8-.4,2.4-1.6,5.1-1.9-.3-6.8-1-7.5-1.1-1.8-.2-3.6-.2-4.3-.2-1.3,0-3.4.4-3.8.4h0c-2.6.4-5.8,1-8.7,1.5,2-1.8,3.7-3.3,3.9-3.5,1.3-1.2,2.1-2.7,2.3-4.4,0-.4.1-1.3-.4-3.1h0s-.5-1.5-.6-2.1c3.1-8.6,7.7-21.5,8-22.2,0,0,0,0,0,0,.8-.4,3.7-2,4.3-2.2,1.4-.8,2.4-1.7,3.2-2.8.5-.8.8-1.7,1-2.5,1.4-.4,3.4-.9,3.9-1.1,5.1-.8,11.4-1.6,14-1.7,1.9,0,5,.4,6,.6h0c1.8.4,8.4,1.6,9.1,1.7,1,.2,2,.3,3,.4.8,0,1.8,0,2.1,0,2.2,0,12.4-.3,13.2-.3.1,0,.3,0,.5,0,1.4,0,3.7-.1,5.6-.6,1.7-.4,3.6-1.2,3.8-1.3h0c1.5-.7,3.2-1.4,5-2.2-1,.7-1.9,1.6-2.2,2h0Z"/>
    </g>
  </g>
</svg>