<?xml version="1.0" encoding="UTF-8"?>
<svg xmlns="http://www.w3.org/2000/svg" version="1.1" viewBox="0 0 121 85">
  <defs>
    <style>
      .cls-1 {
        fill: #e0e0e0;
      }
    </style>
  </defs>
  <!-- Generator: Adobe Illustrator 28.7.1, SVG Export Plug-In . SVG Version: 1.2.0 Build 142)  -->
  <g>
    <g id="Layer_1">
      <path class="cls-1" d="M114.9,28.8c-.5-1.6-1.4-3-2.3-4.1-1.9-2.6-4.9-6.7-7.4-10l-2.2-2.9c-.3-.4-.6-.7-.7-.8,0,.8.1,2.4.2,3.5v.8c0,.7.3,1.4.7,1.9h0c.2.3.4.7.7,1,.4.5.7,1,1,1.5,0,.1.2.3.2.4.4.6.8,1.3,1,2.1h0c.3,1.1.5,2.1.1,3.3h0c0,0,0,.1,0,.1-.7,1.7-2.2,3.1-4.2,4-1.6.7-3.5,1.1-5.3,1.2-9.3.2-34.9.7-45.8.9-3,0-4.9,0-5.3,0,0,0,0,0-.1,0h0c-.3,0-.8-.1-1.2-.4-.6-.4-1-1.2-1-2,0-1.1-.1-9-.1-9.3,0-1.5-.9-3.5-1.9-4.5-1.8-2-4.5-2.9-6.2-2.9h0c-1,0-1.7,0-2,0,0,0,0,.2,0,.2-.1.4-.5,1.6-1.8,1.5-.9-.1-2.6-.4-3.9-.7-.8-.1-1.4-.3-1.8-.3,0,0,0,0,0,0,0,2.2,0,6.3,0,10.1,0,3.6,0,7,0,8.8h0c-.2,6.3-2.3,8.1-7.4,11h0c-.9.5-2,.9-3.2,1.4-2,.8-4.3,1.7-5.9,3-.7.6-1.2,1.4-1.4,2.2h0c-.5,1.5-1.1,4.2-1.5,5.9,0,.3-.1.5-.2.7.2,0,.3,0,.5.1.3,0,.5.1.8.2,1.9.6,5.4,3,8.3,4.9.8.6,1.6,1.1,2.2,1.5,5.1,3.3,15.8,9.1,22.3,10.9,2.4.7,4.1.9,6.4,1,11.6.2,33.7.1,51.4,0,5.5,0,10.6,0,15,0v-.3c0-.5,0-1,.2-1.6h0c.3-.7.8-1,1.2-1.2.2-.1.3-.2.4-.3.3-6.8.3-16.9.4-25.9,0-5.8,0-11.4.2-15.5,0-.2-.1-.7-.2-1.1,0,0,0-.2,0-.3h0ZM111.2,45.7c0,8.2-.1,17.4-.3,24-.4.4-.8.9-1.1,1.5-3.7,0-7.7,0-12,0-17.7,0-39.8.2-51.3,0-2.1,0-3.4-.2-5.4-.8h0c-5.9-1.6-16.1-7.1-21.2-10.4-.6-.4-1.3-.9-2.1-1.4-2.9-2-5.3-3.5-7.2-4.5.3-1.1.6-2.2.8-2.9v-.2c0,0,.1-.2.1-.2,0,0,0-.2.2-.3,1.1-.9,3-1.6,4.7-2.3,1.3-.5,2.5-1,3.6-1.5h.1c2.6-1.5,5-3,6.7-5.4,1.1-1.5,2.5-3.9,2.7-8.9h0c0-2,0-5.3,0-8.9,0-1.9,0-3.8,0-5.5.6,0,1.1.2,1.5.2h0c1.5.2,3.3-.3,4.6-1.7.8,0,2.2.6,3.2,1.6h0c.4.4.8,1.4.8,2,0,1.2.1,8,.1,9.2,0,2.1,1,4,2.6,5.2,1.1.8,2.3,1,3.1,1.1h0c.1,0,.3,0,.4,0,.4,0,2.3,0,5.2,0,10.9-.2,36.5-.7,45.8-.9,4.8,0,10.5-2.3,12.8-7.3.6.8,1.2,1.7,1.4,2.5,0,0,0,.1,0,.2,0,.1,0,.3,0,.4,0,4.2-.1,9.6-.2,15.3h0Z"/>
      <path class="cls-1" d="M120.6,27.6c0,0,0-.2,0-.3v-.2c-.8-2.5-2.1-4.5-3.2-6-1.9-2.6-4.9-6.7-7.4-10l-2.1-2.9v-.2c-.8-.8-2.8-3.4-6-3.1-1.9.1-3.5,1.2-4.5,3v.2c-.1,0-.2.2-.2.2-.4.9-.5,1.7-.5,2.2h0c0,.7,0,2.3.2,4.1v.8c.1,1.8.8,3.6,1.8,5,.2.4.5.7.7,1,.3.4.6.8.8,1.1,0,.1.2.3.3.4.1.2.3.5.4.6-.8.7-2.5,1.2-3.8,1.2h0c-9.3.2-34.9.7-45.8.9-.6,0-1.2,0-1.7,0,0-2.7,0-5.9,0-5.9h0c0-3-1.5-6.3-3.5-8.4-3.1-3.4-7.5-4.6-10.3-4.7-1.7-.1-3.6-.1-5.2.8-.3.2-.5.3-.7.5-.4,0-.7-.1-1-.2-.8-.2-1.4-.3-1.9-.3,0,0-.2,0-.3,0-1.6-.2-3.2.1-4.4,1h0c-1.3,1.1-2.1,2.7-2.1,4.5,0,2.3,0,6.4,0,10.4,0,3.5,0,6.8,0,8.7,0,2.3-.4,3-.7,3.4-.5.7-1.9,1.6-3.7,2.6-.6.3-1.6.7-2.5,1.1-2.3.9-5.3,2-7.6,4h-.1c-1.5,1.4-2.5,3.2-3.1,5-.6,1.7-1.2,4.3-1.6,6.2,0,.3-.1.5-.2.8,0,0,0,.2,0,.3-.6,2.7.8,5.4,3.3,6.4.6.2,1.2.4,1.6.5.1,0,.3,0,.3,0h.2c1.2.5,5,3.1,6.7,4.2.8.6,1.6,1.1,2.3,1.5,5.6,3.6,16.7,9.6,23.9,11.6,3,.9,5.1,1.1,7.8,1.2h0c5.5.1,13.2.2,21.8.2s20.4,0,29.8,0c5.6,0,10.8,0,15.3,0h.3c.6,0,1.2-.2,1.8-.4.4-.2.8-.4,1-.5h.1c0,0,.2-.3.2-.3.7-.5,1.8-1.7,2-3.7.4-.4.9-.9,1.2-1.5l.6-1v-1.2c.3-6.8.4-17.2.4-26.4,0-5.8,0-11.3.2-15.4,0-1-.2-1.9-.4-2.7h0ZM117,45.7c0,9.2-.1,19.5-.4,26.3v.2s-.1.2-.1.2c-.3.5-.8.8-1.1,1.1-.3.2-.4.3-.5.4,0,.2,0,.4,0,.8,0,.2,0,.3,0,.5,0,.6-.2,1-.6,1.4h-.1c0,.1-.2.2-.3.3-.2,0-.4.1-.6.1h0c-4.5,0-9.7,0-15.3,0-9.4,0-20.1,0-29.8,0s-16.3,0-21.7-.2c-2.5,0-4.3-.3-6.9-1-6.8-1.9-17.5-7.6-22.8-11.1-.6-.4-1.4-.9-2.2-1.5-2.6-1.8-6.2-4.2-7.8-4.7h0c-.2,0-.4-.1-.7-.2-.4,0-.7-.2-1.1-.3-.8-.3-1.1-1.2-.9-1.9,0,0,0,0,0-.1,0-.3.1-.5.2-.8.4-1.9,1-4.5,1.6-6,.3-1.2,1-2.3,1.9-3.2h0c1.8-1.5,4.3-2.5,6.5-3.3,1.1-.4,2.2-.8,3-1.3,4.7-2.7,6.2-4,6.5-9.3,0-1.8,0-5.2,0-8.7,0-4,0-8.2,0-10.4,0-.6.2-1.1.6-1.4.5-.4,1.2-.3,1.5-.3,0,0,.1,0,.2,0h0c.4,0,1,.2,1.8.3,1.2.2,2.6.5,3.5.6,0,0,0,0,0,0,.1-.4.3-1,.9-1.4.7-.4,1.6-.4,3.1-.3,2.2,0,5.4,1.1,7.6,3.5,1.3,1.4,2.3,3.8,2.4,5.8h0c0,.1.1,8.3.1,9.3h0c0,.2,0,.4.1.4,0,0,.1,0,.2,0h0c.4,0,2.4,0,5.3,0,10.9-.2,36.5-.7,45.8-.9,2.9,0,6.5-1.3,7.7-3.9.2-.7.1-1.2-.2-2.2-.1-.5-.5-1.1-.8-1.6,0-.1-.2-.3-.2-.4-.2-.4-.6-.9-.9-1.4-.3-.4-.5-.7-.7-1-.6-.8-1-1.9-1.1-3v-.8c-.1-1.4-.2-3.2-.2-3.9h0c0-.2,0-.4.1-.7h0c.4-.9,1-1.1,1.4-1.1,1.2,0,2.1,1.1,2.6,1.7h0c0,0,2.1,3,2.1,3,2.5,3.3,5.5,7.4,7.4,10,.9,1.2,2,2.8,2.6,4.7h0c0,.1,0,.2,0,.3.1.6.3,1.1.3,1.6,0,4.2-.1,9.7-.2,15.5h0Z"/>
    </g>
  </g>
</svg>