<?xml version="1.0" encoding="UTF-8"?>
<svg xmlns="http://www.w3.org/2000/svg" version="1.1" viewBox="0 0 121 85">
  <defs>
    <style>
      .cls-1 {
        fill: #e0e0e0;
      }
    </style>
  </defs>
  <!-- Generator: Adobe Illustrator 28.7.1, SVG Export Plug-In . SVG Version: 1.2.0 Build 142)  -->
  <g>
    <g id="Layer_1">
      <path class="cls-1" d="M18.9,22.9c0,.4,0,.4.1.6.6.6,4,2.8,4.8,3.3.7.4,1.4.6,2.4.6.6,0,2.6,0,4-.8,1.1-.7,4.6-2.9,9.1-3.2l-19.7-.8s-.6,0-.6.3Z"/>
      <path class="cls-1" d="M113.8,31.5c0-.4.9-3.7,1-4.2,0-.3.1-.6,0-.8,0,0,0,0,0,0-.1,0-.2,0-.4,0l-70.9-2.8c1.6.3,3,.7,4.2,1.5,2.7,1.6,25.9,15.1,26.1,15.2.2.1,2.3,1.4,2.1,3.1-.2,1.7-1.5,2.5-2.5,3.1-.1,0-.3.2-.4.2-1,.6-1.7,1.2-1.9,2-.1.5,0,1.1,0,1.7,0,.4,0,.8,0,1.2,0,1.8-.4,3.8-2.9,5.5-1.3.9-4.1,2.4-8.5,2.7-2.9.2-5.9-.5-9.1-2.1h0c-1.2-.6-14.4-8.3-15.1-8.8,0,0-1.4-.7-3-.6-1.2.1-2.8.8-4.4,2-1.2.9-3.3,1.8-5.4,1.7-1.5-.1-2.7-.7-3.8-1.8,0,0-.1-.1-.2-.2-.7-.7-2.5-2.5-3.9-2.9-1.3-.3-4.3-.2-6.5,1.4,0,0-.2.1-.3.2-1.5,1.1-2.8,2-2.3,5.1,0,.3.2.6.5.8.8.6,2.2.6,2.7.5.6-.1,3.9-.6,6.8.3,2.6.8,5.3,1.3,6.4,1.4,1.2.1,3.4.2,5.4.2s3.3,0,6.1-.1c3.8-.1,8.4-.2,10.7-.2s.5,0,.7,0c2.3,0,6.2,1.4,8.5,2.6,1.9,1,6.5,2.4,9.4,2.6,3.6.3,9.4,0,12.5-1,5.4-1.6,14.1-4.7,17.9-6.1,2.4-.9,14.1-6.2,15.5-7.4.2-.2.4-.3.4-.4,0-.1-.5-.5-1.7-1.3,0,0-.1,0-.2-.1-1-.6-3.1-1.7-3.4-3.7-.3-2,.7-4,2.3-4.7,1.1-.4,2.6-.4,3.8-.3.4,0,.8,0,1,0,1.1,0,1.6-.3,2.2-.7.3-.2.9-1.1,1.9-2.8,0,0-.2-.1-.3-.2-.9-.5-1.3-1.2-1.1-2.1h0ZM12.1,51.4c-.2,0-.4,0-.6,0,.9-.4,2-.4,2.4-.3.1,0,.4.2.7.5-.9-.1-1.8-.2-2.6-.2ZM33.6,53.5c-1.1,0-2.2,0-3.1,0,1.2-.9,2.1-1.2,2.4-1.2,0,0,0,0,.1,0,.3,0,.6,0,.8.1.4.3,1,.6,1.6.9-.6,0-1.2,0-1.8,0h0ZM110.2,33.5c-1.5,0-3.5-.1-5.3.6-3.3,1.3-5.2,5-4.7,8.8.3,1.7,1.1,3.1,2.1,4.1-3.8,1.8-8.9,4.1-10.3,4.7-3.8,1.4-12.3,4.5-17.7,6.1-.3,0-.7.2-1.1.3,1.8-2.5,1.8-5,1.9-6,0-.6,0-1.2,0-1.6,0,0,0,0,0-.1,0,0,.1,0,.2-.1.1,0,.2-.1.3-.2,1.3-.8,3.9-2.4,4.3-6,.3-3.1-1.8-5.6-3.9-6.8-.1,0-8.2-4.8-15.4-9l49.7,2c0,.3-.1.6-.2.7-.2.9-.1,1.8,0,2.7h0Z"/>
      <path class="cls-1" d="M120.6,31.6c-.2-.4-.4-.8-.6-1.1.2-.7.3-1.4.4-1.6.2-.8.9-3.6-.7-5.8-.6-.9-1.5-1.5-2.5-1.9l-.3-.3-97-3.8c-2.7-.1-5.8,1.5-6.5,4.8-.6,2.8.6,4.7,1.7,5.7,1.3,1.3,5.8,4.1,5.9,4.1,1.5.9,3.2,1.4,5.1,1.4,1.6,0,4.7,0,7.3-1.7.8-.5,3.4-2.2,6.6-2.3,2.3-.1,4,.2,5.2.9,2.1,1.2,16.8,9.8,23.2,13.5-1,.9-2.1,2.3-2.5,4.1-.3,1.3-.2,2.5-.1,3.4,0,.3,0,.5,0,.7,0,.5,0,.7,0,.7,0,0,0,.1-.4.3-.6.4-2.4,1.5-5.7,1.7-1.8.1-3.9-.4-6.2-1.5h0c-.9-.5-8.3-4.8-14.8-8.6h0c-.5-.3-3-1.6-6.3-1.3-2.4.2-4.8,1.3-7.4,3.1-.4.3-1.2.6-1.5.6,0,0,0,0,0,0,0,0,0,0-.2-.1,0,0,0-.1-.2-.2-1.8-1.8-4-3.8-6.6-4.4-3-.7-7.7-.3-11.2,2.4l-.2.2c-1.8,1.3-5.6,4.1-4.6,10.6.3,1.8,1.3,3.5,2.9,4.6,2.4,1.7,5.6,1.7,7.1,1.5,1-.2,2.8-.3,4,0,2.8.9,5.9,1.5,7.6,1.7,1.3.1,3.8.3,5.9.3s3.3,0,6.2-.1c4.2-.1,9.4-.3,11.1-.2,1.1,0,4,.9,6,2,2.5,1.3,7.8,2.9,11.7,3.2.9,0,2,0,3.1,0,3.8,0,8.4-.4,11.4-1.3,5.5-1.7,14.1-4.7,18.2-6.2,1.1-.4,14.6-6.2,17.2-8.4.7-.6,3-2.5,2.4-5.9-.3-1.4-1.1-2.5-2-3.4,1.5-.3,2.9-.9,4.1-1.9.7-.6,1.7-1.6,3.3-4.5,1.2-2.2.7-4,.4-4.9h0ZM116.9,34.6c-1,1.8-1.8,2.9-2.4,3.4-.9.8-1.9,1.1-3.3,1.1-.3,0-.7,0-1.1,0-1,0-2.3-.1-3,.2-.7.3-1.4,1.4-1.2,2.6.2,1,1.8,1.9,2.4,2.3.1,0,.2.1.3.2,1.7,1,2.4,1.7,2.6,2.5.2,1.1-.5,1.7-1.1,2.2-1.8,1.5-14,7-16.1,7.8-3.8,1.4-12.6,4.5-18,6.2-2.6.8-6.8,1.1-10.3,1.1s-2,0-2.8,0c-3.2-.2-8-1.7-10.1-2.8-2.1-1.1-5.7-2.4-7.7-2.4-1.8,0-7,.1-11.3.2-2.8,0-5.3.1-6.1.1-2,0-4.3-.1-5.6-.3-1.2-.1-4.1-.6-6.8-1.5-2.4-.8-5.3-.3-5.8-.2-.9.2-2.9,0-4.2-.8-.7-.5-1.2-1.2-1.3-2.1-.7-4.2,1.5-5.8,3.1-6.9,0,0,.2-.1.3-.2,3-2.2,6.6-2.1,8.1-1.7,1.9.5,3.9,2.5,4.8,3.4,0,0,.1.1.2.2.5.5,1.3,1.1,2.6,1.3,1.5.1,3.1-.6,4.1-1.3,1.3-1,3.4-2.2,5.4-2.4,2.3-.2,4,.8,4.1.8h0c4.8,2.8,14.1,8.2,15,8.7h.1c2.9,1.5,5.6,2.2,8.2,2,4-.3,6.5-1.6,7.6-2.4,1.8-1.3,2-2.7,2.1-4,0-.3,0-.7,0-1.1,0-.7-.1-1.5,0-2.3.3-1.5,1.5-2.5,2.8-3.2.1,0,.3-.2.4-.3,1-.6,1.5-.9,1.6-1.7,0-.3-.6-1-1.2-1.3-.2-.1-23.5-13.7-26.1-15.2-1.9-1.1-4.3-1.6-7.4-1.4-4.1.2-7.4,2.2-8.4,2.9-1.8,1.1-4.1,1.2-5.1,1.1-1.3,0-2.4-.3-3.3-.9-.6-.3-4.3-2.8-5.1-3.6-.7-.7-.8-1.3-.6-2.3.3-1.3,1.5-1.8,2.6-1.8l95.5,3.8h0c.4,0,1,.1,1.4.7.5.7.4,1.8.2,2.5-.2.5-.9,3.7-1,4.1,0,0,0,0,.1,0,.2.1.5.3.6.4.3.1.5.4.7.7.1.3.2.9-.2,1.6h0ZM71.1,45.2s0,0,0,0c0,0,0,0,0,0Z"/>
    </g>
  </g>
</svg>