<?xml version="1.0" encoding="UTF-8"?>
<svg xmlns="http://www.w3.org/2000/svg" xmlns:xlink="http://www.w3.org/1999/xlink" version="1.1" viewBox="0 0 121 85">
  <defs>
    <style>
      .cls-1 {
        fill: none;
      }

      .cls-2 {
        fill: #e0e0e0;
      }

      .cls-3 {
        fill: #15151e;
      }

      .cls-4 {
        clip-path: url(#clippath);
      }
    </style>
    <clipPath id="clippath">
      <rect class="cls-1" width="121" height="85"/>
    </clipPath>
  </defs>
  <!-- Generator: Adobe Illustrator 28.7.1, SVG Export Plug-In . SVG Version: 1.2.0 Build 142)  -->
  <g>
    <g id="Layer_1">
      <g class="cls-4">
        <g>
          <path class="cls-3" d="M5.8,24.4s-.3,0-.3.2c0,0,0,0,0,0,0,0,.2.1.5.2.2,0,1.9.4,3.6.8-.2,0-.5-.2-.7-.3-1.5-.6-2.7-.9-3-.9Z"/>
          <path class="cls-2" d="M120.8,46.2c-.7-2.3-2.4-3.7-3.8-4.2-2.1-.8-4.4-.4-6.2.9-1.3-.8-2.7-1.6-3.5-2.1,0,0,0,0,0,0-.4-.2-4.3-2.4-8.9-3.2,0,0,0,0,0,0l-20.8-4.5c-.7-1.4-2-2.4-3.8-2.8-.6-.1-37.7-8.3-38.1-8.4-.3,0-1.7-.4-3-.4-.2,0-.7,0-1.4,0-2.6-.2-8.1-.6-14.3-.8-.4,0-1.3,0-2.9,0-1.3,0-2.1,0-3.3-.4-1-.4-3.4-1.3-5.2-1.3-2.8,0-5.2,2.1-5.6,4.8-.5,3,1.5,5.6,4.6,6.3.4.1,4.8,1,6.2,1.3.8.2,2,.5,2.3.6.9.3,2.9,1.2,5.4,2.7,2.4,1.3,8.3,5.6,11.8,8.7,0,0,0,0,0,0,0,0,0,0,0,0-.2.4-.3.9-.3,1.5-.1,1.6.5,3.2,1.8,4.3.4.4,5.1,4.3,8.1,6.6,3.3,2.5,9.5,5.8,15.3,7.9l.8.3c4.2,1.5,7.6,2.8,10.7,2.8s3-.3,4.4-1.1c1.5-.8,2.4-1.7,2.9-2.6,1.5.7,3.3,1.5,4.2,2,.7.3,3,1.3,5.3,1.3h0c2.1,0,4.5-.3,7-2.1.3-.2.4-.3.4-.3,0,0,0,0,0,0h0c.3,0,3.1-.8,5.1-1.3.7.6,1.8,1.3,3.1,1.5,1,.2,2,0,3-.3,0,0,0,0,0,0,.8-.2,5.2-2.2,5.9-2.5.9-.4,3.8-1.9,5-2.7,1.6-1.1,4-3.7,6-6.2,2.1-2.7,1.8-5.2,1.4-6.4h0ZM116.4,50.4c-1.9,2.5-4.1,4.7-5.1,5.4-.8.6-3.4,1.9-4.4,2.4-.8.4-5,2.2-5.5,2.3-.3,0-.8.2-1.3.1-.9-.1-1.7-1.1-1.8-1.2-.2-.2-.6-.5-.8-.6,0,0-.3,0-.5,0-.2,0-6.1,1.6-6.4,1.7h0c-.3,0-.9.2-1.8.9-1.8,1.3-3.5,1.4-4.9,1.4h0c-1.7,0-3.7-.9-3.8-1,0,0-6.1-2.8-6.9-3.2-.7-.3-.9-.2-1-.1-.2.1-.4.5-.5.9h0c-.2,1.3-.4,2.2-2.1,3.2-.8.4-1.6.6-2.6.6-2.4,0-5.4-1.1-9.4-2.6l-.8-.3c-5.3-2-11.3-5-14.3-7.3-3-2.4-7.6-6.2-7.9-6.5-1-.9-.5-1.8-.2-2.4h0c.2-.6.4-.9,0-1.7-.2-.6-1-1.5-1.5-1.9,0,0,0,0,0,0-3.8-3.4-9.9-7.8-12.4-9.2-2.7-1.5-4.8-2.5-6-2.9-.8-.3-2.7-.7-2.8-.8-.3,0-5.7-1.2-6.2-1.3-1.6-.4-2-1.4-1.9-2.2.2-1.1,1.2-1.7,2.1-1.7.7,0,2.3.4,3.7,1,1.8.7,3.3.8,4.9.7,1.5-.1,2.3,0,2.4,0,6.2.2,11.6.6,14.2.8.7,0,1.3,0,1.5.1,1,0,2.3.3,2.4.3.4,0,37.6,8.3,38.1,8.4.8.2,1.6.6,1.4,2.2,0,0,0,0,0,0,0,0,0,0,.1,0l23.1,5s0,0,0,0c4.1.7,7.6,2.7,7.7,2.8.2.1,4.9,2.9,5.7,3.4,0,0,0,0,.1,0,.2-.2,1.2-1.1,1.6-1.5.8-.7,1.8-.9,2.8-.5.4.2,1.3.7,1.6,1.8.2.7.2,1.8-.8,3.3h0Z"/>
          <path class="cls-2" d="M115,47c-.4-.2-.7,0-.8.2-.5.5-1.6,1.5-1.7,1.5,0,0,0,0,0,0-.4.3-1.4.7-2.3.1-.6-.4-4.3-2.6-5.6-3.4,0,0-3.3-1.9-7-2.6,0,0,0,0-.1,0l-23.2-5c-.7-.2-1.7-.9-1.5-2.1,0,0,0-.1,0-.2-.7-.2-36.6-8-38.1-8.4,0,0-1.2-.3-2.1-.3-.2,0-.7,0-1.5-.1-2.6-.2-8-.6-14.2-.8,0,0,0,0,0,0,0,0-.7,0-2.2,0-.8,0-1.6,0-2.5,0,0,0,0,0,0,0,0,0,0,0,0,0,0,0,2.1.5,3,.8,1.2.4,3.4,1.5,6.2,3,2.7,1.5,8.8,5.9,12.7,9.4.2.2,1.6,1.4,2,2.7.4,1.3.3,2-.2,2.9h0c0,.2,0,.3-.1.4.6.5,5,4.2,7.8,6.3,2.4,1.9,7.9,4.9,13.8,7.1l.8.3c5,1.8,8.6,3.1,10.4,2.1,1.1-.6,1.1-.9,1.2-1.8h0c.2-1.5.9-2.1,1.4-2.3.8-.5,1.6-.4,2.7,0,.8.4,6.6,3.1,6.9,3.2.5.2,1.9.8,3,.8h0c1.5,0,2.6-.2,3.8-1,1.2-.9,2-1.1,2.4-1.2h0c.3,0,4.3-1.1,6.4-1.7.2,0,1-.2,1.7,0,.5.2,1.1.7,1.5,1.1.2.3.6.5.7.6.1,0,.3,0,.5,0,.4-.1,4.3-1.8,5.2-2.2,1.1-.5,3.5-1.8,4.2-2.3.8-.6,2.8-2.5,4.7-5,.3-.4.7-1.1.6-1.6-.1-.4-.4-.6-.5-.7h0ZM104.5,53.4c-.5.2-2.1.9-3.3,1.4-.5-.4-1.1-.7-1.6-.9-1.7-.7-3.4-.4-4-.2-2.3.6-6,1.6-6.4,1.7h0c-.9.2-2.1.6-3.7,1.8-.3.2-.5.3-1.7.3-.3,0-1-.2-1.5-.5-.3-.1-6.1-2.8-6.9-3.2-2.1-1-4.2-.9-6,0-1.5.8-2.5,2.2-3,4-.3,0-.8-.1-1.5-.3-1.5-.4-3.3-1.1-5.4-1.9l-.8-.3c-5.4-2-10.6-4.8-12.8-6.5-1.8-1.4-4.2-3.3-5.8-4.7.1-.9,0-2-.4-3.3-.7-2-2.4-3.6-3.1-4.3-2.2-1.9-5.3-4.3-8.1-6.4.9,0,1.6.1,2.3.2.9,0,1.4,0,1.6.1.4,0,1.1.1,1.4.2,1.3.3,27.9,6.1,35.9,7.9.8,1.5,2.3,2.5,3.8,2.8l23.2,5c.1,0,.2,0,.3,0,2.9.6,5.6,2,5.8,2.1,1.9,1.1,4.1,2.4,5,3-.8.5-2.4,1.3-3.3,1.7Z"/>
        </g>
      </g>
    </g>
  </g>
</svg>