<?xml version="1.0" encoding="UTF-8"?>
<svg xmlns="http://www.w3.org/2000/svg" version="1.1" viewBox="0 0 121 85">
  <defs>
    <style>
      .cls-1 {
        fill: #e0e0e0;
      }
    </style>
  </defs>
  <!-- Generator: Adobe Illustrator 28.7.1, SVG Export Plug-In . SVG Version: 1.2.0 Build 142)  -->
  <g>
    <g id="Layer_1">
      <path class="cls-1" d="M112.7,59.2l-7.9-.2-16.7-.3-16.9-.4c-.2,0-5-.1-6.2-.3-1.3-.1-1.6-.5-2.2-1.2-.1-.1-.2-.3-.4-.4-.7-.7-1.2-1-2.4-1.4-.8-.3-2.1,0-3,.2-.2,0-.3,0-.5.1-1.2.3-2-.4-2.4-.9-1.1-1.1-18.5-17.9-21-20.3-2.5-2.5-4-4.8-4.2-5-2.2-3.4-8.2-12.5-8.9-13.3-.3-.4-.8-.4-.9-.3l-10.4,1.9s0,0-.1,0-2.1,0-2.8,1.4c-.7,1.3-.4,2.2-.4,2.4l2,4.8c0,.2,2.1,4.9,2.5,5.8.2.6.8,2,1,3.3,0,0,0,.1,0,.2.1,0,.4,0,.9.2,1.1.2,1.4,1.1,1.5,1.5l1.3,8.6c0,.3,1.1,6.4,1.4,8.4.2,1.4.6,3,.7,3.9,0,.4.2.8.3,1.1.5,1.4,2.5,6.1,5.7,8.5,3.9,2.8,7.5,2.8,7.5,2.8h0s4.7,0,6.7,0c1.8,0,3.8-.7,3.9-.7,0,0,3.1-1.1,4.1-1.5.7-.3,1.3-.1,1.6,0,.6.4.7,1,.8,1.1,0,0,0,.2,0,.3,0,0,0,.2,0,.6h6.1s17.7,0,17.7,0c0,0,17.6.3,21.2.4,2.8,0,5.8-.1,6.9-.2,0,0,.4,0,.7,0,1.4-.1,2.3-.2,2.5-.2,1.3,0,3.6-.3,6.2-.9,3.6-.9,5.7-3.2,6.4-5,.5-1.4.3-2.9-.5-3.9-.8-1-1.9-1-2-1h0ZM108,65.5c-2.4.6-4.5.8-5.4.8-.3,0-.9,0-2.8.2-.3,0-.6,0-.6,0-1.1,0-4,.2-6.6.2-3.6,0-21.2-.4-21.2-.4h-17.8s-3.4,0-3.4,0c-.4-.6-1-1.1-1.6-1.5-1.4-.8-3.1-.9-4.8-.3-.6.3-2.7,1-3.9,1.4-.4.1-1.7.5-2.7.5-2,0-6.6,0-6.7,0,0,0,0,0,0,0-.4,0-2.7-.2-5.3-2.1-1.9-1.4-3.5-4.4-4.4-6.8,0-.2-.1-.4-.2-.6-.2-.8-.5-2.3-.7-3.7-.3-2-1.3-7.8-1.4-8.4l-1.3-8.5c-.2-1.6-1.2-3.3-3-4.2-.2-.8-.5-1.5-.7-1.9-.4-.9-2.4-5.5-2.5-5.9l-1.4-3.4s0,0,0,0l8.7-1.6c1.6,2.3,4.8,7.2,7.8,11.7.3.5,2,3,4.7,5.7,2.4,2.3,18.8,18.2,20.8,20.2,1.3,1.5,3.4,2.6,5.9,2,.2,0,.3,0,.5-.1.3,0,.9-.2,1.2-.2.4.1.4.2.6.4,0,.1.2.2.3.3.9,1,2.1,2.2,4.6,2.4,1.3.1,5.6.2,6.4.3h0l16.9.4h0l16.7.3h7c-.2.6-1.2,2.1-3.8,2.8h0Z"/>
      <path class="cls-1" d="M118.9,56.6c-2.3-2.7-5.4-2.9-6-2.9l-7.9-.2-16.7-.3-16.8-.4c-1.5,0-3.8-.1-5-.2-1.5-1.5-2.8-2.2-4.5-2.8-1.7-.6-3.4-.5-4.7-.2-3.8-3.7-17.9-17.3-20.1-19.5-2-1.9-3.2-3.8-3.3-4,0,0,0,0,0-.1-3.1-4.7-8.3-12.7-9.2-13.8-1.6-2-4.1-2.5-5.8-2.3,0,0-.2,0-.3,0l-10.1,1.8c-2.3.2-5.4,1.3-7,4.1-1.6,2.7-1.4,5.5-.8,7.2,0,0,0,0,0,0l2,4.8s0,0,0,0c.7,1.7,2.2,5.1,2.5,5.8.3.8.6,1.6.6,1.9.2,1.6,1,3,2.3,3.9.2.1.3.2.5.3l.9,6.3s0,0,0,0c0,0,1.1,6.4,1.4,8.4.2,1.6.6,3.3.8,4.2.1.6.3,1.3.5,1.9,2.4,6.6,5.9,9.7,7.7,11.1,5.1,3.6,9.8,3.8,10.8,3.8.4,0,4.8,0,6.7,0,2.7,0,5.3-.9,5.6-1,0,0,0,0,0,0,.1,0,.5-.2,1-.4.9.8,2.1,1.2,3.3,1.2h6.3s17.7,0,17.7,0c.9,0,17.6.3,21.2.4.3,0,.7,0,1,0,2.7,0,5.3-.2,6.4-.2.1,0,.4,0,.7,0,.6,0,1.9-.1,2.2-.2,1.6,0,4.4-.3,7.4-1.1,5.7-1.4,9-5.3,10.2-8.4,1.2-3.3.7-7-1.5-9.5h0ZM116.9,64.7c-.9,2.3-3.3,5.1-7.6,6.2-2.7.7-5.2.9-6.7,1-.2,0-1.7.1-2.4.2-.3,0-.6,0-.7,0-1.1,0-3.6.2-6.2.2s-.6,0-.9,0c-3.6,0-21.2-.4-21.2-.4h-17.7s-6.3,0-6.3,0c-.7,0-1.3-.5-1.5-1.1,0-.2,0-.4,0-.6s0-.3,0-.4c-1.1.4-3.9,1.4-4,1.4-.1,0-2.3.8-4.5.8-2,0-6.4,0-6.7,0-.3,0-4.3,0-8.6-3.1-3.6-2.6-5.7-7.4-6.4-9.3-.2-.4-.3-.9-.4-1.4-.2-.9-.5-2.5-.8-4-.3-2-1.4-8.4-1.4-8.4,0,0,0,0,0,0l-1.3-8.6s0,0,0,0c-.5-.1-.8-.2-.9-.2-.5,0-1.3-.5-1.5-1.7-.1-.9-.5-2-.9-2.8-.4-.9-2.5-5.8-2.5-5.8l-2-4.8s0,0,0,0c0,0-.7-1.9.5-4,1.2-2,3.8-2.2,4.3-2.3l10.4-1.9s0,0,0,0c.2,0,1.6-.1,2.6,1,.9,1.1,8.2,12.2,9,13.5,0,0,0,0,0,0,0,0,1.4,2.3,3.9,4.7,2.5,2.4,20.8,20.2,21,20.4,0,0,0,0,.1.1,0,0,.3.3.6.3.1,0,.3,0,.4-.1,1.1-.3,2.7-.6,4-.2,1.3.4,2.1.9,3.1,1.9.2.2.3.3.4.5.4.5.4.5,1,.6,1.1.1,6,.2,6.1.2l16.9.4,16.7.3,7.9.2c0,0,2,0,3.3,1.6,1.3,1.5,1.6,3.8.8,5.8h0Z"/>
    </g>
  </g>
</svg>