<?xml version="1.0" encoding="UTF-8"?>
<svg xmlns="http://www.w3.org/2000/svg" version="1.1" viewBox="0 0 121 85">
  <defs>
    <style>
      .cls-1 {
        fill: #e0e0e0;
      }
    </style>
  </defs>
  <!-- Generator: Adobe Illustrator 28.7.1, SVG Export Plug-In . SVG Version: 1.2.0 Build 142)  -->
  <g>
    <g id="Layer_1">
      <path class="cls-1" d="M117.5,72c-.4-1.2-1.4-2.8-2.2-3.9l-15.4-22.9h0s0,0,0,0c0,0,0,0,0,0l12.9-15.9c.3-.4,1.2-1.6,2-3.5,1.1-2.9-.2-5.8-.6-6.6l-5.7-10.2c-.4-.8-1.1-1.9-2.7-3.3-2.2-1.9-5.1-2-5.7-2h-8.3c-1,0-3.8,0-6.6,1.7-3.2,2-4.3,4.6-4.6,5.4-2.5,6.8-5.5,14.6-6.1,15.7-.2.4-.4.8-.6,1.2-1,2.2-2.3,4.9-7.5,8.7-3,2.2-5.9,3.1-7.5,3.2l2.6-9.3h0c.2-.9.8-3.3.3-5.4-.5-2.1-1.8-4-3.7-5.4-.8-.6-3.7-3.5-4.7-5-1.7-2.5-2.1-5.1-2.3-6.5,0-.3,0-.6-.1-.9-.1-.8-.5-2.5-2-4.2-1.6-1.8-3.9-2.7-6.9-2.9-3.4-.2-6.4,1.3-8.2,4.1-1.1,1.8-1.4,3.6-1.5,4l-1.8,15.4-3.2-9.1c-.3-.8-1.2-3.2-3.7-4.8-2-1.4-4.5-1.9-6.8-1.3-1,.2-7.2,2.3-8.2,2.8-1,.5-3.3,1.6-4.5,4-.7,1.4-1.1,2.9-1.1,4.3s.4,3.2.6,3.6h0c0,0,8.8,24.8,8.8,24.8h0c.2.6.9,2.5,2,3.8,1.2,1.5,2.8,2.4,3.2,2.7l10.1,5.2h0s.1,0,.1,0c.2.1.5.4.5.5,0,.2,0,.3,0,.4l-11.3,6.1c-3.2,1.6-6.3,5.6-5.4,10.5.6,3.2,2.5,5.7,5.4,7,.7.3,1.4.5,2,.7l.3.3h87.8c.1,0,.2,0,.4,0,1.5,0,5.2-.3,7.8-3,2.6-2.7,3.5-6.6,2.3-10h0ZM112.6,79.5c-1.6,1.7-4.3,1.9-5.2,1.9s-.2,0-.3,0H20.7s0,0,0,0c-1.8-.2-4.9-1.3-5.6-5-.7-3.6,2-5.9,3.5-6.7l12-6.5c.1,0,1.4-1,1.3-3.4-.2-2.4-2.4-3.5-2.5-3.5h0s-10-5.2-10-5.2c0,0-1.3-.7-2.1-1.7-.7-.9-1.3-2.6-1.4-2.8L7,21.9c0,0-.4-1.4-.4-2.5s.4-2.2.7-2.7c.6-1.3,2.1-1.9,2.8-2.3.7-.3,6.6-2.3,7.5-2.5.6-.1,2.2-.4,3.9.8,1.6,1.1,2.2,2.8,2.3,3l5.7,16.2c0,0,.5,1.5,1.7,1.4,1.6,0,1.8-1.1,1.8-1.3l2.7-23.2c.2-1.9,1.8-5.3,5.9-5,4.8.3,5.4,3.2,5.6,4.2,0,.2,0,.4.1.7.2,1.6.7,4.9,2.9,8,1.3,1.9,4.7,5.3,5.6,5.9,1.2.9,2,2,2.3,3.3.3,1.4-.2,3.4-.2,3.6l-2.7,9.8s-.8,2.7.9,3.7c.7.4,2.3.7,4.8,0,2.5-.6,5.2-1.9,7.5-3.6,5.8-4.3,7.4-7.6,8.6-10,.2-.4.4-.8.6-1.1.8-1.6,4.5-11.3,6.3-16.2,0-.2.8-2.2,3.1-3.6,2.1-1.3,4.3-1.2,4.6-1.2h8.4c0,0,2,0,3.4,1.2,1.3,1.1,1.7,1.9,1.8,2.2l5.7,10.2c.1.2,1,2.1.5,3.6-.6,1.5-1.3,2.4-1.4,2.5l-13.2,16.3c0,0-.7.9-.6,1.8,0,1.1.8,2.2.8,2.2h0s15.4,22.9,15.4,22.9c.1.2,1.4,2.1,1.8,3,.7,2.2.1,4.6-1.5,6.4h0Z"/>
      <path class="cls-1" d="M110.8,71.1l-15.4-22.9c-.1-.2-1.1-1.6-1.1-3.2,0-1.5.9-2.8,1-3h0s13.2-16.4,13.2-16.4c0,0,.6-.7,1.1-2,.2-.6-.1-1.6-.4-2.1l-5.7-10.3h0c0-.1-.4-.7-1.4-1.6-.8-.7-2.2-.7-2.2-.7h-8.5s-1.9-.1-3.6.9c-1.8,1.1-2.3,2.6-2.4,2.6h0c-.2.6-5.3,14.3-6.4,16.4-.2.3-.3.7-.5,1-1.2,2.4-2.9,6.1-9.1,10.6-2.5,1.9-5.4,3.3-8.2,3.9-2.6.6-4.9.5-6.2-.3-1.2-.7-1.9-2-1.9-3.6,0-1.1.2-2,.3-2.1l2.7-9.8c.1-.5.4-1.9.2-2.7-.2-.9-.7-1.6-1.6-2.2-1.1-.8-4.6-4.3-6-6.3-2.4-3.5-2.9-7.1-3.2-8.8,0-.3,0-.5-.1-.6-.2-1-.5-2.5-3.9-2.8-1.5,0-2.5.4-3.2,1.5-.6.9-.7,1.9-.7,1.9l-2.7,23.3c-.1,1-1,2.8-3.5,2.9-2,.1-3.2-1.6-3.5-2.6l-5.7-16.2s-.4-1.3-1.6-2.1c-1.1-.8-2.1-.6-2.5-.5-.8.2-6.5,2.1-7.1,2.4-.6.3-1.6.8-2,1.5-.3.7-.5,1.4-.5,1.9,0,.8.3,1.8.3,2l8.7,24.6c.2.4.7,1.6,1.1,2.2.6.7,1.5,1.2,1.5,1.2l10,5.1c.3.1,3.3,1.7,3.5,5,.2,3.6-2,5-2.1,5.1h0s-12.1,6.6-12.1,6.6c-.1,0-3.1,1.6-2.5,4.8.6,3.5,4.1,3.6,4.2,3.6h86.1c0,0,2.7.2,4.1-1.2.9-1,1.7-2.7,1.1-4.6-.2-.5-1-1.9-1.5-2.6h0ZM100,12.6h0,0ZM108.7,75.8c-.2.1-.9.2-1.3.2h0s-84.1,0-84.1,0h0c0-.1-1.9,0-1.9,0-.1,0-.4,0-.6-.2,0,0-.2,0-.2-.4,0-.2,0-.3,0-.4.2-.2.4-.4.5-.5l12.2-6.6h.2c1.9-1.3,4.1-4.2,3.8-8.5-.3-5.1-4.6-7.5-5.4-8l-10-5.1s0,0,0,0h0s0,0,0,0c-.1,0-.3-.2-.4-.3-.1-.2-.4-.8-.6-1.3l-8.7-24.5c0-.3-.1-.6-.2-.8.1,0,.2-.1.4-.2.8-.3,4.9-1.7,6.2-2.1,0,0,0,.1.1.2l5.7,16.2c.9,2.7,3.4,5.2,7.1,5.1,2.4-.1,4.4-1.2,5.7-3,.9-1.3,1.2-2.6,1.2-3.1l2.7-23.1s0,0,0,0h0c0-.1,0,0,0,0,0-.1,0-.2.1-.3,0,0,0,0,0,0,.3,0,.5,0,.6,0,0,0,0,.2,0,.3.3,1.8.9,6.1,3.8,10.3,1.6,2.4,5.5,6.2,6.9,7.2,0,0,.1,0,.1.1,0,.3,0,.7-.2,1l-2.7,9.7c-.1.5-.4,1.7-.4,3.2,0,2.8,1.4,5.2,3.7,6.6,2.8,1.7,6.4,1.3,8.9.7,2.3-.5,5.8-1.8,9.5-4.5,6.9-5.1,9-9.4,10.2-12,.2-.4.3-.7.5-.9,1.1-2.2,5.3-13.4,6.6-16.8,0-.1.3-.5.9-.9.5-.3,1.1-.4,1.4-.4h0s8.7,0,8.7,0c0,0,0,0,0,0h0s0,0,0,0c0,0,0,0,0,0,.2.2.3.3.3.4l5.6,10.1c-.1.2-.2.3-.2.4l-13.2,16.4h0c-.4.7-1.8,2.7-1.8,5.3,0,2.5,1.3,4.5,1.8,5.2l15.4,22.9h0c.4.7.9,1.5,1.1,1.8,0,.3-.1.6-.3.8h0Z"/>
    </g>
  </g>
</svg>