<?xml version="1.0" encoding="UTF-8"?>
<svg xmlns="http://www.w3.org/2000/svg" xmlns:xlink="http://www.w3.org/1999/xlink" version="1.1" viewBox="0 0 121 85">
  <defs>
    <style>
      .cls-1 {
        fill: none;
      }

      .cls-2 {
        fill: #e0e0e0;
      }

      .cls-3 {
        clip-path: url(#clippath);
      }
    </style>
    <clipPath id="clippath">
      <rect class="cls-1" width="121" height="85"/>
    </clipPath>
  </defs>
  <!-- Generator: Adobe Illustrator 28.7.1, SVG Export Plug-In . SVG Version: 1.2.0 Build 142)  -->
  <g>
    <g id="Layer_1">
      <g class="cls-3">
        <g>
          <path class="cls-2" d="M111.4,63.2c-2.1-1.1-4.7-.3-5.3.2-.6.5-.4,1.6,0,2.4.8,1.8.9,3.1.4,4.1-.6,1-1.9,1-2,1-1.5,0-36.4-1.1-36.9-1.1-.6,0-1.6-.2-2.3-.8-.7-.6-1-1.4-1.1-1.5-.2-.5-1.6-4.5-1.8-5.1-.1-.4-.5-1.8.3-3,.5-.8,1.9-1.9,3.9-1.5,1.5.3,5.1.8,6.2.8h0c2.1,0,4-1.2,5.1-3.2,1.1-1.9,1-3.9-.2-6-.3-.5-1-1.7-1.7-2.7-.5-.8-1-1.5-1.2-2h0c-3.3-5.6-2.2-9.9-.6-12.5,3.7-6.3,10.2-5.8,10.6-5.8.5,0,13.6,1,16.4.9,1.6,0,4.2-.5,7.3-2h0c.5-.3.6-.6.6-1,0,0-.4-.3-.6-.4-6.6-1.6-16.7-4.1-17.3-4.3-.9-.2-2.3,0-2.7,0,0,0,0,0,0,0-.2,0-18.1,2.7-21.1,3-3.3.4-5.3-1.2-6.5-2.6-.8-1-1.4-1.9-1.7-2.8-1-2.4,0-3.7.8-4.3,1.1-.9,2.2-1,2.9-.9,1,.1,2,.7,2.5,1.6,0,.1.2.3.3.4.7,1.1,1.2,1.7,1.9,1.7,1.5,0,2.2-1.6,2.4-2.3.5-1.5,0-2.9-1.4-4.2-1.4-1.2-3.9-2.2-6.5-1.2-2.9,1.1-4.2,4-4.2,4.2l-21.8,59.4c-.4,1.3-1.3,1.7-1.8,1.7h0c-1,0-21.7,1-23,1.1-1,0-4.1,1.6-5.1,2.4l100.3-.5c2.5,0,4.9-1.2,6.4-3.1,1.3-1.6,2-3.2,2.1-4.8.1-2.5-1-4.3-3.6-5.6h0ZM39.9,72.9l18.2-49.7c2.5,2.8,5.9,4.1,9.7,3.6,1-.1,3.5-.5,6.5-.9-1.4,1.1-2.7,2.5-3.7,4.4-1.7,2.9-3.9,8.9.7,16.5h0c.3.6.8,1.3,1.3,2.1.6.9,1.3,2.1,1.6,2.5.6,1.1.4,1.6.2,2.1-.4.7-1,1.1-1.7,1.1h0c-.8,0-4.1-.4-5.4-.7-3.5-.7-6.5,1.1-7.9,3.2-1.7,2.5-1.2,5.3-.9,6.3.2.6,1.1,3.2,1.9,5.3.2.7.9,2.1,2.3,3.3.4.3.7.5,1.1.8h-23.9c0,.1,0,.1,0,.1ZM111.1,68.6c0,.2,0,.8-.6,1.5.2-.9.2-1.8.1-2.7.5.4.5.8.5,1.2h0Z"/>
          <path class="cls-2" d="M114.1,57.9c-4.3-2.1-9.4-1.1-11.9,1.1-1.7,1.5-2.5,3.6-2.4,5.8-7-.2-16.7-.5-23.6-.7,2.9-.9,5.3-2.9,6.9-5.7,2.1-3.7,2-7.9-.2-11.7-.4-.7-1-1.6-1.9-3-.4-.7-.9-1.4-1.2-1.8h0c-1.5-2.6-1.7-4.5-.6-6.4.7-1.3,1.7-2.1,3-2.5.9-.3,1.7-.3,2-.3,0,0,0,0,0,0s0,0,0,0c2.3.2,14.1,1,17.1.9,3.2-.1,6.5-1.1,9.7-2.7h0c2.5-1.3,4-3.7,3.9-6.4,0-3.3-2.7-5.4-5.2-6-11.1-2.8-17-4.2-17.7-4.3-1.9-.3-4,0-4.7,0-.6,0-6.5.9-11.9,1.7,0,0,0-.2,0-.2,1.2-3.8,0-7.7-3.1-10.5-3.4-3-8.4-3.9-12.6-2.3-5.4,2-7.5,7.1-7.7,7.6,0,0,0,0,0,0l-21,57.3c-6,.3-19.3.9-20.3.9-1.7.1-3.8,1-5.3,1.8-3,1.5-4.5,2.8-5.1,4.6-.7,1.8-.4,3.8.6,5.3,1.1,1.5,2.8,2.5,4.8,2.5h.1l100.6-.5h0c4.3-.1,8.2-2,10.9-5.2,2.1-2.6,3.3-5.4,3.5-8.3.1-2.8-.6-8-6.9-11.2h0ZM34.4,67.7c0,0-.1,0-.2,0,0,0,.1,0,.2,0ZM117,68.9c0,2-1,4-2.6,5.9-1.9,2.3-4.8,3.7-7.9,3.8h0l-100.6.5h0c-.2,0-1.1,0-1.6-.8-.2-.3-.4-.9-.1-1.7.1-.3.4-1,3.2-2.4.4-.2,2.6-1.3,3.8-1.4,1.3,0,21-1,22.9-1.1,0,0,0-.1.1-.3,0,0,0,0,0,0L55.9,11.8s0,0,0,0c0-.2,1.6-3.9,5.4-5.4,3.5-1.3,6.8,0,8.5,1.6,2,1.8,2.7,4,2,6.3-.7,2.2-2.3,3.6-4.2,3.7-1.9,0-2.9-1.5-3.6-2.6,0-.1-.2-.3-.3-.4-.2-.3-.6-.7-1.2-.7-.5,0-.9.1-1.4.5-1.2,1,.4,3.4,1.2,4.4,1.2,1.5,2.8,2.1,4.7,1.9,2.9-.4,20.5-3,21-3,.2,0,2.1-.3,3.4,0,.8.1,15.7,3.9,17.4,4.3.8.2,2.1.9,2.2,2.2,0,1.2-.6,2.2-1.7,2.8h0c-2.7,1.4-5.5,2.1-8.1,2.3-2.9.1-16.1-.8-16.6-.9,0,0,0,0,0,0-.2,0-5.6-.5-8.7,4.8-1.9,3.2-1.6,6.7.6,10.4h0c.3.5.7,1.2,1.2,2,.7,1.1,1.4,2.2,1.8,2.8,1.5,2.7,1.5,5.4.2,7.9-1.5,2.6-4,4.2-6.9,4.2-1.3,0-5.1-.5-6.6-.8-.9-.2-1.6.5-1.8.7-.2.3-.2.9,0,1.3.1.4,1.1,3.2,1.8,5,0,0,0,0,0,0,0,.1.2.5.4.7.3.3,1,.3,1.2.3.6,0,24.3.7,36.9,1.1,0,0,.2,0,.3,0,0-.2.2-.8-.5-2.2-.9-1.8-.6-3.6.6-4.7,1.3-1.1,4.8-1.9,7.5-.5,3.3,1.6,4.9,4.1,4.7,7.4h0Z"/>
        </g>
      </g>
    </g>
  </g>
</svg>