<?xml version="1.0" encoding="UTF-8"?>
<svg xmlns="http://www.w3.org/2000/svg" xmlns:xlink="http://www.w3.org/1999/xlink" version="1.1" viewBox="0 0 121 85">
  <defs>
    <style>
      .cls-1 {
        fill: none;
      }

      .cls-2 {
        fill: #e0e0e0;
      }

      .cls-3 {
        clip-path: url(#clippath);
      }
    </style>
    <clipPath id="clippath">
      <rect class="cls-1" width="121" height="85"/>
    </clipPath>
  </defs>
  <!-- Generator: Adobe Illustrator 28.7.1, SVG Export Plug-In . SVG Version: 1.2.0 Build 142)  -->
  <g>
    <g id="Layer_1">
      <g class="cls-3">
        <path class="cls-2" d="M35.1,39.5c0,0,.2.1.4.2.7.5,3.8,3,6.8,5.5,1.5,1.2,3,2.4,4,3.3.5.4,1,.8,1.3,1.1.2.1.3.2.4.3,0,0,0,0,0,0,0,0,0,0,0,0,0,0,0,0,0,0h0s0,0,0,0l.6-.7-2.9,3.6h0s0,0,0,0c0,0,0,0,0,0,0,0,0,0,0,0,0,0-.2-.2-.4-.3-.3-.3-.8-.6-1.3-1.1-1.1-.9-2.5-2.1-4-3.3-1.1-.9-2.2-1.8-3.1-2.5-.9,2.6-2,5.4-2.5,6.7-.4,1.1-.8,2.5-1.1,3.8-.2.6-.3,1.2-.4,1.5,0,.2,0,.3,0,.4,0,0,0,0,0,0,0,0,0,0,0,.1,0,.1,0,.3,0,.6,0,.5-.2,1.2-.4,2.1-.3,1.8-.7,4.1-1.1,6.5-.4,2.4-.8,4.9-1.2,6.9-.3,1.6-.6,3.1-.7,3.9v.3c0,0,0,0,0,0-.4,1.5-1.3,2.6-2.6,3.3-1.1.6-2.1.7-2.7.7-2,0-3.8-.9-4.9-2.5l-.2-.3h0c-.3-.6-.9-1.5-1.3-2.2h0c-.2-.3-.4-.6-.6-.7-1-.8-4.4-3.6-5.6-4.5h0c-1.9-1.5-2.6-3.5-2.8-4.6-.2-.6-.2-1.2-.3-1.6,0-.2,0-.3,0-.4,0,0,0,0,0,0,0-.1,0-.3,0-.5-.5-.2-.9-.5-1.3-.7-.6-.4-1.3-.9-1.8-1.2-1.1-.7-1.8-1.5-2.3-2.1-.3-.3-.5-.6-.6-.8,0-.1-.1-.2-.2-.3,0,0,0,0,0,0,0,0,0,0,0,0,0,0,0,0,0,0,0,0,0,0,0,0,0,0,0,0,0,0h0s3.1-1.9,3.1-1.9h0s0,0,0,0c0,0,0,0,0,0,0,0,0,0,0,0,0,0,0,0,0,0,0,0,0,0,.1.2,0,.1.2.3.4.5.4.4.9,1,1.6,1.5.6.4,1.2.8,1.7,1.2.5.3,1.1.6,1.6.8h.2c.2,0,.4,0,.5.1.2,0,.3,0,.4,0,0,0,0,0,0,0,0,0,0,.1,0,.3,0,.7,0,1.5,0,2,0,.3,0,.5,0,.7,0,0,0,.1,0,.2,0,0,0,0,0,0,0,0,0,0,0,0,0,0,0,.2,0,.3,0,.3,0,.6.2,1,.2.8.6,1.9,1.5,2.6l2.9,2.4,2.7,2.2c0,0,.1.1.2.2l.2.2c.2.3.6.7.9,1.3l.7,1.1c.2.4.5.8.6,1.1h0c.4.6,1.1,1,1.8,1,.3,0,.7,0,1-.3.4-.2.7-.6.8-1.1h0c.1-.5.4-2,.8-3.9.4-2,.8-4.4,1.2-6.8.4-2.4.8-4.8,1.1-6.5.1-.9.3-1.6.4-2.1,0-.3,0-.5,0-.6,0,0,0-.1,0-.2h0s0,0,0,0c0,0,0,0,0-.1,0-.1,0-.3.1-.5,0-.4.2-1,.4-1.6.3-1.3.8-2.9,1.2-4.2l2.5-6.8c.5-1.3.9-2.5,1.3-3.4.2-.4.3-.8.4-1.1,0,0,0-.1,0-.2ZM101.2,8.6c.4,0,.7.3,1,.9l.2.3.2.4c.3.6,1,1.1,1.6,1.6.6.4,1.3.8,2,1,1.2.3,2.7.1,3.6,0,0,0,0,0,0,0,0,0,0,0,.1.1,0,0,0,.2.1.2,0,0,0,0,0,0l5.4,39.6c0,.5,0,.9,0,1.1,0,.2,0,.3-.2.5-.3.5-1,1.5-1.6,2.5l-1.5,2.4c-.1.2-.3.3-.6.4-.1,0-.2,0-.3,0,0,0,0,0,0,0,0,0,0,0,0,0h0,0s-5.9-.4-5.9-.4h0s-12.5-.7-12.5-.7c0,0,0,0-.1,0h0s-.1,0-.2,0c-.2,0-.4,0-.7,0-.5,0-1-.3-1.3-.6l-.2-.2-.2-.2c-.7-.9-.7-1.6-.7-2.7h0c0-.6-.1-1.2-.4-1.7-.4-.5-.9-.9-1.6-.9h0c-1,0-9-.6-16.8-1.1l-15.5-1h0c-.4,0-1,0-1.8-.1h-.8c-.7-.2-1.5-.5-2.1-.8-.3-.2-.6-.3-.8-.4,0,0-.2-.1-.2-.1,0,0,0,0,0,0,0,0,0,0,0,0,0,0,0,0,0,0,0,0-.2-.2-.4-.3-.3-.3-.8-.6-1.3-1.1-1.1-.9-2.5-2.1-4.1-3.3-3-2.4-6.2-5-6.9-5.5-.8-.6-1.6-.8-2.3-.5-.3.2-.5.4-.6.5,0,0-.1.2-.1.2,0,0,0,0,0,0,0,0,0,0,0,0,0,0,0,0,0,0h0s0,0,0,0c0,0,0,0,0,0,0,0,0,0,0,0,0,0,0,.2-.1.3,0,.3-.2.6-.4,1.1-.3.9-.8,2.1-1.3,3.4l-2.5,6.8h0c-.5,1.4-1,3.1-1.3,4.4-.2.7-.3,1.3-.4,1.7,0,.2,0,.4-.1.5,0,0,0,.1,0,.1,0,0,0,0,0,0,0,0,0,0,0,0,0,0,0,0,0,0h0s0,0,0,0c-3.4-.7-3.6-.8-3.6-.8h0s0,0,0,0c0,0,0,0,0,0,0,0,0,0,0,0,0,0,0,0,0-.1,0-.1,0-.3.1-.5,0-.4.2-1.1.4-1.8.3-1.4.8-3.2,1.4-4.8h0s2.5-6.8,2.5-6.8c.4-1.2.9-2.3,1.2-3.2,0,0-.2-.2-.3-.3v-.2c-.1,0-.1,0-.1,0-.3-.4-1.3-1.5-2.2-2.6-.5-.5-.9-1-1.2-1.4-.2-.2-.3-.3-.4-.4,0,0,0,0,0,0,0,0-.1-.1-.2-.2-.2-.2-.5-.5-.8-.8-.5-.5-1-.9-1.4-1.2,0,.1-.2.3-.3.5-.5.9-2.9,5.4-5.3,9.6-1.2,2.1-2.3,4.2-3.2,5.7-.4.8-.8,1.4-1,1.9-.1.2-.2.4-.3.5,0,0,0,.1,0,.1,0,0,0,0,0,0h0s0,0,0,0h0s0,0,0,0c0,0,0,0,0,0,0,0,0,0,0,0,0,0,0,0,0,0h0s0,0,0,0c0,0,0,0,0,0,0,0-.1.2-.2.3-.2.3-.4.7-.6,1.1-.4.7-.9,1.7-1.4,2.4l-.2.3h0c-.1.2-.3.4-.4.5.1.2.3.3.5.5.3.2.7.5.9.6.3.2.4.3.6.4,0,0,0,0,0,0,0,0,0,0,0,0,.2,0,.9.1,1.7.4.9.3,1.9,1,2.7,2.2.6,1,.8,2.1.9,2.9v.4c0,.5,0,1.1,0,1.5,0,.2,0,.4,0,.5,0,0,0,.1,0,.1,0,0,0,0,0,0v.3c0,0,0,.2,0,.3h0c0,0,0,0,0,0,0,0,0,0,0,0,1,.8,2.9,2.3,4.2,3.4.2-1,.3-1.9.5-2.9.4-2.4.8-4.8,1.1-6.5.1-.9.3-1.6.4-2.1,0-.3,0-.5,0-.6,0,0,0-.1,0-.2,0,0,0,0,0,0,0,0,0,0,0,0h0s0,0,0,0c0,0,0-.1,0-.2l3.6.8s0,0,0,0h0s0,0,0,0c0,0,0,0,0,0,0,0,0,0,0,.2,0,.1,0,.3,0,.6,0,.5-.2,1.2-.4,2.1-.3,1.8-.7,4.1-1.1,6.5-.4,2.4-.8,4.9-1.2,6.8-.3,1.9-.6,3.3-.7,3.7,0,0,0,0-.1,0,0,0-.1,0-.1,0h0c-.2-.3-.4-.7-.7-1.1l-.7-1.2c-.3-.5-.6-.9-.9-1.2l-.2-.3h0s-.1-.2-.1-.2c0-.1-.2-.2-.3-.3h-.2c0-.1,0-.1,0-.1l-2.7-2.2-3-2.4c-.5-.4-.8-1-.9-1.6,0-.3-.1-.6-.1-.7,0,0,0-.2,0-.2,0,0,0,0,0,0h0s0-.1,0-.1h0s0,0,0,0c0,0,0,0,0,0,0,0,0,0,0-.2,0-.2,0-.4,0-.6,0-.5,0-1.2,0-1.9v-.2c0-.4-.1-.8-.3-1.1-.2-.4-.6-.6-.9-.7-.3-.1-.6-.2-.8-.2-.3,0-.4,0-.6,0h0c-.3,0-.6-.2-1.1-.5-.5-.3-1-.7-1.6-1.1-.5-.4-1-.8-1.3-1.2-.1-.2-.3-.3-.3-.4,0,0,0,0,0,0,0,0,0,0,0-.1,0-.1-.1-.3-.2-.5-.2-.4-.4-.9-.5-1.4,0-.1,0-.3,0-.3l2,1.6h0c-.4-.3-1.1-.8-2-1.6,0,0,0,0,0,0h0s0,0,.1-.1c0-.1.2-.3.4-.5.3-.4.7-.9,1-1.4l.3-.5c.3-.5.8-1.3,1.1-1.9.2-.4.5-.8.6-1.1,0-.1.1-.3.2-.3,0,0,0,0,0,0,0,0,0,0,0,0,0,0,0,0,0,0h0s0,0,0,0c0,0,0,0,0,0,0,0,0,0,0-.1,0-.1.2-.3.3-.5.2-.4.6-1.1,1-1.9.8-1.5,2-3.6,3.2-5.7,2.3-4.3,4.8-8.7,5.3-9.6.5-.8.8-1.3,1-1.5,0-.1.2-.2.2-.2,0,0,0,0,0,0,0,0,0,0,0,0,0,0,0,0,0,0,0,0,0,0,0,0,0,0,0,0,0,0h0s0,0,0,0c0,0,0,0,0,0,0,0,0,0,.1,0h0s0,0,0,0c0,0,0,0,0,0,0,0,0,0,0,0,0,0,.2-.2.3-.3.3-.2.7-.6,1.1-.9.3-.2.5-.2.5-.2,0,0,0,0,.1,0h0s0,0,0,0c0,0,.2,0,.3.2.3.2.7.5,1.4.9.6.4,1.5,1.1,2.2,1.8.4.3.7.6.9.8.1.1.2.2.3.3,0,0,0,0,0,0,0,0,0,0,0,0,0,0,0,0,.1.1,0,.1.2.3.4.4.3.4.7.9,1.2,1.4.9,1.1,1.9,2.2,2.3,2.7h0c.3.4.7.6,1.1.7.4,0,.8,0,1.1-.1h0c.5-.2.9-.6,1.1-1.1h0s1.3-2.6,1.3-2.6c.3-.6.9-1.6,1.4-2.4.3-.4.5-.8.7-1,0-.1.2-.2.2-.3,0,0,0,0,0,0h0s0,0,0,0c0,0,0,0,0-.1,0-.1.2-.3.3-.4.3-.4.6-.9,1-1.5.8-1.1,1.7-2.4,2.3-3.1.2-.3.4-.4.4-.4,0,0,.1,0,.1,0,0,0,0,0,0,0,0,0,0,0,0,0,0,0,0,0,0,0,0,0,0,0,0,0,0,0,0,0,0,0,0,0,0,0,0,0h0s0,0,.1,0h0s0,0,0,0c0,0,0,0,0,0,0,0,0,0,.1,0,.1,0,.3.2.5.3.5.3,1.1.7,1.9,1.1,1.6,1,3.8,2.2,6.1,3.6,4.6,2.7,9.6,5.7,11.2,6.6,1.8,1,3.4,1.5,4.5,1.8.6.1,1.1.2,1.4.2.2,0,.3,0,.4,0,0,0,0,0,.1,0,0,0,0,0,0,0,0,0,0,0,0,0,0,0,.1,0,.2,0,.2,0,.5,0,.8,0,.7,0,1.7.1,3,.2,2.5.2,5.8.4,9.2.6,6.8.4,13.9.9,15.1.9h.5c2.4,0,4.1-.7,5-1.3h.1c.6-.5.8-1.1.9-1.5,0-.2,0-.4,0-.6,0,0,0-.1,0-.2h0c0,0,0,0,0-.1,0,0,0,0,0-.1,0,0,0-.2,0-.4,0-.3,0-.8,0-1.3,0-.5,0-1.2-.1-1.8l-.2-1.9c-.1-1.4-.6-3-1-4.2-.2-.6-.4-1.2-.6-1.6,0-.2-.1-.4-.2-.5v-.2c0,0,0,0,0,0,0,0,0,0,0,0,0,0,0,0,0,0,0,0,0-.2-.1-.4-.1-.3-.3-.7-.5-1.2-.4-1-.9-2.3-1.3-3.4-.4-1-.6-2-.7-2.7,0-.4,0-.7,0-.8,0,0,0-.2,0-.2,0,0,0,0,0,0,0,0,0,0,0,0,0,0,0,0,0,0,0,0,0,0,0,0,0,0,0-.1,0-.3,0-.2,0-.6,0-1,0-.9.2-2.1.4-3.6.1-1,.7-1.3.9-1.3h0ZM115.4,11.8c0,.2,0,.3,0,.5l5.4,39.8c0,.3,0,.6,0,.8,0,.8,0,1.4-.2,1.9h0c-.1.8-.4,1.6-.8,2.3l-.2.3c-.7,1-2.6,4-3.1,4.8h0c-1.2,1.9-2.9,2.6-4.1,2.8-.6.1-1.1.1-1.5.1-.2,0-.4,0-.5,0,0,0,0,0,0,0l-5.8-.4h0s-12.3-.7-12.3-.7c-.1,0-.2,0-.4,0-.4,0-.9,0-1.5-.2-1.1-.2-3-.8-4.5-2.4h0c-1.3-1.4-1.8-2.8-2.1-4-3.2-.2-8.6-.5-13.9-.9-7.9-.5-15.2-1-15.3-1h0c-.6,0-1.5,0-2.6-.2h-.5c-1.7-.3-3.2-1-4-1.4-.5-.2-.9-.5-1.1-.7-.1,0-.3-.2-.3-.2,0,0,0,0-.1,0,0,0,0,0,0,0,0,0,0,0,0,0,0,0,0,0,0,0h0s2.1-3,2.1-3h0s0,0,0,0c0,0,0,0,0,0,0,0,0,0,0,0,0,0,0,0,0,0,0,0,.2,0,.3.2.2.1.5.3.9.5.7.4,1.7.8,2.8,1h.4c.7.1,1.4.2,1.9.2h.4s0,0,.3,0c.2,0,.6,0,1,0,.8,0,2,.1,3.5.2,2.9.2,6.7.4,10.6.7,7.8.5,15.8,1,16.8,1.1h.1s0,0,0,0c0,0,0,0,0,0,0,0,0,.2.1.4v.2s0,0,0,0c0,1.2-.1,2.7,1.3,4.2h0c.8.8,1.8,1.2,2.5,1.3.4,0,.7,0,.9.1.1,0,.2,0,.3,0,0,0,0,0,0,0l12.5.7h0s5.9.4,5.9.4c0,0,0,0,0,0,0,0,.1,0,.2,0,.2,0,.4,0,.7,0,.5-.1,1.2-.4,1.6-1h0c.5-1,2.5-4,3.2-5,.2-.4.4-.7.5-1.2h0c0-.3.1-.8.1-1.4,0,0,0-.1,0-.2l-5.4-39.8h0c0,0,3.6-1,3.6-1ZM22.8,22c.7,0,1.2.2,1.6.3.2,0,.4.2.5.2,0,0,.1,0,.2.1,0,0,0,0,0,0,0,0,0,0,0,0,0,0,0,0,0,0h0s0,0,0,0h0s0,0,0,0c0,0,0,0,0,0,0,0,0,0,0,0,0,0,0,0,.1,0,0,0,.2.1.4.2.3.2.8.5,1.5,1,1,.7,2.1,1.7,2.8,2.3.4.4.7.7,1,.9.1.1.2.2.3.3,0,0,0,0,0,0,0,0,0,0,0,0h0s0,0,0,0l.2.3-2.8,2.4h0s0,0,0,0c0,0,0,0,0,0,0,0,0,0,0,0,0,0-.2-.2-.3-.3-.2-.2-.6-.5-.9-.9-.7-.7-1.7-1.5-2.4-2-.7-.5-1.1-.8-1.5-1-.2,0-.3-.2-.3-.2,0,0,0,0,0,0,0,0,0,0,0,0h0s0,0,0,0h0s0,0,0,0h0s0,0,0,0c0,0,0,0,0,0,0,0,0,0,0,0,0,0-.1,0-.2,0-.2,0-.4-.1-.6-.1-.5,0-1,0-1.6.5l-.2.2h0c-.5.4-.9.7-1.1.9-.1.1-.3.2-.3.3,0,0,0,0,0,0,0,0,0,0,0,0,0,0,0,0,0,0,0,0,0,0-.1.1,0,0-.2.2-.4.4-.3.3-.7.9-1.2,1.8-.5.9-2.9,5.3-5.3,9.6-1.2,2.1-2.3,4.2-3.2,5.7-.4.8-.8,1.4-1,1.9-.1.2-.2.4-.3.5,0,0,0,.1,0,.1,0,0,0,0,0,0,0,0,0,0,0,0h0s0,0,0,0h0s0,0,0,0c0,0,0,0,0,0,0,0,0,0,0,0,0,0,0,0,0,0,0,0-.1.2-.2.3-.2.3-.4.7-.6,1.1-.5.8-1,1.7-1.3,2.2-.3.5-.7,1-1,1.4-.1.2-.3.4-.4.5,0,0,0,0,0,.1,0,0,0,0-.1.1-.1.1-.2.3-.2.5-.1.4,0,.9.2,1.5.2.5.4,1.1.6,1.5,0,.2.2.4.2.5,0,0,0,.1,0,.1,0,0,0,0,0,0,0,0,0,0,0,0,0,0,0,0,0,0h0s.8-.4.8-.4l-.8.4s0,0,0,.1l.8-.5-3.9,2.4c0,0-.1-.2-.2-.3v-.3c-.1,0-.1,0-.1,0h0s0,0,0,0c0,0,0,0,0-.2,0-.1-.1-.3-.2-.5-.2-.4-.4-1-.6-1.6-.4-1-.6-2.3-.3-3.7.2-.7.5-1.3.9-1.9,0,0,.1-.2.2-.3,0,0,0,0,0,0,0-.1.2-.3.3-.4.3-.4.6-.8.9-1.3.2-.3.6-1,1.1-1.9.2-.4.4-.8.6-1,0-.1.1-.2.2-.3,0,0,0,0,0,0,0,0,0,0,0,0,0,0,0,0,0,0h0s0,0,0,0h0s0,0,0,0c0,0,0,0,0,0,0,0,0,0,0,0,0,0,0,0,0-.1,0-.1.2-.3.3-.5.2-.4.6-1.1,1-1.9.8-1.5,2-3.6,3.2-5.7,2.3-4.3,4.8-8.7,5.3-9.6.6-1,1.1-1.8,1.5-2.4.2-.3.5-.5.7-.8,0,0,.2-.2.3-.3,0,0,0,0,0,0,0,0,.2-.2.3-.3.3-.2.7-.6,1.2-1h0s.3-.2.3-.2c1.3-1,2.8-1.3,4.1-1.3ZM7.3,58h0s0,0,0,0c0,0,0,0,0,0,0,0,0,0,0,0,0,0,0,0,0,0,0,0,0,0,.1-.1h0c0,0-.2.1-.3.2ZM111.6,55.9s0,0,0,0c0,0,0,0,0,0,0,0,0,0,0,0,0,0,0,0,0,0,0,0,0,0,.1,0ZM103.4,15.5c0,.5.2,1.1.4,1.7.5,1.1,1,2.4,1.4,3.4.2.5.4.9.5,1.2,0,.2.1.3.1.4,0,0,0,0,0,0v.2c.1.1.2.3.3.5.2.4.4,1,.6,1.7.4,1.3,1,3.3,1.2,5.1l.2,2c0,.7.1,1.3.1,1.8,0,.5,0,1,.1,1.4,0,.2,0,.3,0,.4,0,0,0,0,0,.1,0,0,0,0,0,0,0,0,0,.1,0,.2,0,.1,0,.3,0,.5,0,.4,0,.8-.2,1.4-.3,1-.9,2.4-2.3,3.4l-.3.2c-1.6,1.1-4.1,2.1-7.5,2h-.3c-1.2,0-8.3-.5-15.1-1-3.4-.2-6.7-.4-9.2-.6-1.2,0-2.3-.1-3-.2-.4,0-.6,0-.8,0,0,0-.1,0-.2,0,0,0,0,0,0,0-.2,0-.4,0-.6,0-.5,0-1.1-.1-1.8-.3-1.5-.3-3.5-1-5.6-2.2-1.7-1-6.7-4-11.3-6.6-2.3-1.4-4.5-2.6-6.1-3.6,0,0,0,0-.1,0-.2.3-.5.6-.7,1-.4.6-.8,1.1-1,1.4-.1.2-.2.3-.3.4,0,0,0,0,0,.1,0,0,0,0,0,0,0,0-.1.2-.2.3-.2.3-.4.6-.6,1-.5.8-1,1.6-1.2,2h0c-.2.3-.3.7-.5,1,1.2,1,4,3.2,6.5,5.2,1.5,1.2,3,2.4,4.1,3.3.5.4,1,.8,1.3,1.1.1.1.2.2.3.3,0,0,0,0,0,0,.1,0,.3.2.5.3.2.1.4.2.6.3.2,0,.3,0,.2,0h.7c.4.1.8.1,1.1.1h.4s0,0,0,0l5,.3c8.7.5,26.1,1.6,27.5,1.7h0c1.8.1,3.4,1,4.4,2.5.9,1.3,1.1,2.7,1.1,3.6h0c0,.1,0,.2,0,.2l12.3.7h0s4.4.3,4.4.3c.6-1,1.4-2.2,1.9-3l-5-36.3c-.5,0-1-.1-1.5-.2-.7-.2-1.3-.4-1.9-.7,0,0,0,0,0,0ZM5.4,54.8s0,0,0,0c0,0,0,0,0,0,0,0,0,0,0,0,0,0,0,0,0,0,0,0,0,0,0,0h0s0,0,0,0c0,0,0,0,.1,0,0,0,0,0,0,0ZM92.3,54.8s0,0,0,0c0,0,0,0,0,0,0,0,0,0,0,0,0,0,0,0,0,0ZM48.1,50s0,0,0,0l-2.1,3c0,0-.2-.1-.2-.2l2.3-2.9ZM36.4,39.8l2.2.8h0s0,0,0,0c0,0,0,0,0,0l-2.2-.8h0ZM98.7,14.7c-.8,0-.9,0-.9,0h0s0,0,0,0c0,0,0,0,0,0,0,0,0,0,0,0,0,0,0,0,0,0,0,0,0,.2,0,.3,0,.2,0,.6,0,1,0,.8.3,2,.8,3.2.5,1.1.9,2.4,1.3,3.3.2.5.4.9.5,1.2,0,.1.1.3.1.3,0,0,0,0,0,0,0,0,0,0,0,0,0,0,0,0,0,0h0s0,0,0,0h0s0,0,0,0c0,0,0,0,0,0,0,0,0,0,0,.1,0,.1.1.3.2.4.1.4.3.9.5,1.5.4,1.2.8,2.7.9,3.8h0s.2,1.9.2,1.9c0,.6.1,1.3.1,1.8,0,.5,0,1,0,1.3,0,.2,0,.3,0,.4,0,0,0,0,0,.1,0,0,0,0,0,0h0s0,0,0,0h0c0,0,0,.2,0,.2,0,.1-.1.3-.3.4h0c-.6.5-1.9,1.1-3.9,1.1h-.4c-1.2,0-8.3-.5-15.1-1-3.4-.2-6.7-.4-9.2-.6-1.2,0-2.3-.1-3-.2-.4,0-.6,0-.8,0,0,0-.2,0-.2,0,0,0,0,0,0,0,0,0,0,0,0,0,0,0,0,0,0,0h0s0,0,0,0c0,0,0,0,0,0,0,0-.2,0-.3,0-.3,0-.7,0-1.2-.2-1-.2-2.4-.7-4-1.6-1.7-1-6.7-3.9-11.2-6.6-2.3-1.4-4.5-2.6-6.1-3.6-.8-.5-1.5-.9-1.9-1.1-.2-.1-.4-.2-.5-.3,0,0-.1,0-.1,0,0,0,0,0,0,0,0,0,0,0,0,0,0,0-.1,0-.2-.1-.2,0-.5-.2-.8-.2-.7,0-1.5.3-2.2,1.2-.5.7-1.5,2-2.3,3.1-.4.6-.8,1.1-1,1.5-.1.2-.2.3-.3.4,0,0,0,0,0,.1h0s0,0,0,0h0s0,0,0,0l.7.4c-.6-.4-.7-.4-.7-.4h0s0,0,0,0c0,0,0,0,0,0,0,0,0,0,0,0,0,0-.1.2-.2.3-.2.3-.4.6-.7,1.1-.5.7-1,1.6-1.4,2.3v.3c-.6,1-1.2,2.1-1.4,2.6,0,.1-.1.2-.2.2,0,0,0,0,0,0h0c-.4-.5-1.4-1.7-2.3-2.7-.5-.5-.9-1-1.2-1.4-.2-.2-.3-.3-.4-.4,0,0,0,0-.1-.1,0,0,0,0,0,0,0,0,0,0,0,0h0s0,0,0,0l2.8-2.4h0s0,0,0,0c0,0,0,0,0,0,0,0,0,0,0,0,0,0,0,0,.1.1,0,.1.2.3.4.4,0,0,0,0,0,0,.2-.3.4-.7.6-.9.3-.4.5-.8.7-1.1,0-.1.2-.3.2-.3,0,0,0,0,0,0,0,0,0,0,0,0h0s0,0,0,0h0s0,0,0,0h0s0,0,0,0c0,0,0,0,0,0,0,0,0,0,0,0,0,0,0,0,0-.1,0-.1.2-.3.3-.4.3-.4.6-.9,1-1.5.8-1.1,1.8-2.4,2.3-3.2l.2-.3c1.2-1.5,3-2.5,5.2-2.4,1,0,1.7.4,2.2.6.2.1.4.2.5.3,0,0,0,0,0,0,.1,0,.3.2.5.3.5.3,1.1.7,1.9,1.1,1.6,1,3.8,2.2,6.1,3.6,4.6,2.7,9.5,5.6,11.2,6.6,1.2.7,2.3,1,2.9,1.2.3,0,.6.1.7.1,0,0,0,0,0,0,0,0,0,0,0,0h0s0,0,0,0h0c.1,0,.2,0,.4,0h0s0,0,0,0c0,0,0,0,0,0,0,0,0,0,0,0,0,0,.1,0,.2,0,.2,0,.5,0,.8,0,.7,0,1.7.1,3,.2,2.5.2,5.8.4,9.2.6,6.8.4,13.9.9,15.1.9h.2c.1,0,.3,0,.4,0,0-.4,0-.9-.1-1.4l-.2-1.9h0c0-.7-.4-1.8-.8-3-.2-.5-.4-1-.5-1.4,0-.2-.1-.3-.2-.4,0,0,0,0,0,0,0,0,0,0,0,0h0c0-.1,0-.1,0-.1,0,0,0,0,0,0,0,0,0,0,0,0,0,0,0-.2-.1-.3-.1-.3-.3-.7-.5-1.2-.4-1-.9-2.2-1.3-3.3-.7-1.6-.9-3.1-1-4.2,0-.6,0-1,0-1.4,0-.2,0-.3,0-.4,0,0,0-.1,0-.2,0,0,0,0,0,0,0,0,0,0,0,0,0,0,0,0,0,0,0,0,0,0,0,0h0s4.6.3,4.6.3ZM99.1,36.1s0,0,0,0c0,0,0,0,0,0,0,0,0,0,0,0,0,0,0,0,0,0h0s0,0,0-.1h0ZM22.2,32.3s0,0,0,0c0,0,0,0,0,0h0s0,0,0,0c0,0,0,0,0,0,0,0,0,0,0,0,0,0-.2.1-.2.2ZM22.5,32.1s0,0,0,0c0,0,0,0,0,0h0s0,0-.1,0ZM94.7,8.9c.5-3.3,3.3-6.4,7.2-5.8h.3c2.4.5,3.9,2.1,4.6,3.2v.2c.1,0,.1,0,.1,0l.3.4s0,0,0,.1c0,0,0,0,0,0,0,0,.1,0,.2.1,0,0,0,0,0,0,0,0,.2,0,.3,0,.4,0,.8,0,1.3-.1h.3c2.8-.2,4.5,1.6,5.1,2.6.3.5.6,1,.7,1.3,0,.2.1.3.2.4,0,0,0,.1,0,.2,0,0,0,0,0,0,0,0,0,0,0,0,0,0,0,0,0,0,0,0,0,0,0,0,0,0,0,0,0,0,0,0-.2,0-4.1,1h-.4c.8-.1.9-.1.9-.1h0s0,0,0,0c0,0,0,0,0,0,0,0,0,0,0,0,0,0,0-.1,0-.2,0-.2-.2-.4-.3-.6-.3-.4-.9-1-1.9-.9-1,.1-2.2.2-3,0-.3,0-.9-.3-1.4-.7-.5-.3-.8-.6-.9-.8h0c0,0,0,0,0,0l-.2-.4-.2-.4h0c-.4-.7-1.1-1.5-2.1-1.7h-.2c-1.4-.2-2.8.9-3.1,2.7v.2c-.2,1.5-.3,2.7-.4,3.6,0,.4,0,.8,0,1,0,.1,0,.2,0,.3,0,0,0,0,0,0,0,0,0,0,0,0,0,0,0,0,0,0h0s-3.7-.2-3.7-.2c0,0,0,0,0,0h0s0,0,0,0c0,0,0,0,0,0,0,0,0,0,0,0,0,0,0-.2,0-.3,0-.2,0-.6.1-1,0-.9.2-2.1.4-3.7h0s0-.3,0-.3ZM111,12.9c.1,0,.2,0,.3,0h.5c0-.1-.9,0-.9,0ZM100.8,11.1h0v-.9c.1,0,.1,0,.1,0v.9Z"/>
      </g>
    </g>
  </g>
</svg>