<?xml version="1.0" encoding="UTF-8"?>
<svg xmlns="http://www.w3.org/2000/svg" version="1.1" viewBox="0 0 121 85">
  <defs>
    <style>
      .cls-1 {
        fill: #e0e0e0;
      }
    </style>
  </defs>
  <!-- Generator: Adobe Illustrator 28.7.1, SVG Export Plug-In . SVG Version: 1.2.0 Build 142)  -->
  <g>
    <g id="Layer_1">
      <path class="cls-1" d="M106.1,22.3c-1.8-1.2-4.1-.4-4.3-.3-1,.5-29.4,13.4-32,14.6-2.9,1.3-4.4,2.5-6.1,4.8-1.5,2.1-2,4-2.4,5.6-.2.9-.4,1.8-.8,2.4-.9,1.7-3.3,3.7-5.7,3.8-2.9.2-4.8-1.2-5-1.4-.5-.4-9-6.9-9.6-7.3h0c-.7-.5-2.3-1.8-2.7-4.5-.4-2.3.2-4.3,1.7-6.3,1.4-1.8,3.7-2.3,3.9-2.4.3,0,8.1-2,10.3-2.5,2.3-.5,3.2-.9,4.3-1.3,4.3-1.8,6.7-5.8,7.3-6.9,1.2-2.3,1.8-5.7,1.8-6.3,0-.4,0-.7-.3-1-.2-.3-.5-.4-.7-.5-.3-.2-.6,0-.6,0,0,0,0,0,0,0-.1,0-10,3.8-14.5,5.4-3.4,1.2-7,2-9.7,2.6-.8.2-1.5.3-2.1.5-2.4.6-4.5,1-10,2.2-5.9,1.2-9,2.2-13.7,4.1-4.7,2-9.1,4.8-9.5,5.1,0,0-.2.1-.2.2.1.1.5.3.8.4,0,0,0,0,0,0,1.1.5,2.5,1,4,1.6,4.5,1.8,10.2,4,14.2,6.2,4.7,2.6,8.7,6.5,11.6,9.3.7.7,1.5,1.4,2.1,2,1.6,1.4,7.2,6.4,12.8,10,4.2,2.6,10,6.1,12.8,7.8l1.1.7c1.1.6,1.8,1.3,2.4,1.9.3.3.7.7.9.8.1,0,.5-.2.7-.4,0,0,0,0,0,0l39.2-31s0,0,0,0c4-3.2,6-6.6,6.6-7.5.1-.2.4-.8.4-1.1,0-.1-.2-.4-.3-.6-2.9-3.7-7.7-9.5-8.9-10.4h0ZM36.4,31.4c-2.2,2.8-3.1,5.9-2.5,9.2.2,1.2.6,2.2,1,3.1-2.4-2.1-5.2-4.3-8.3-6-3.5-2-8.2-3.9-12.4-5.5.9-.4,1.7-.8,2.6-1.2,4.5-1.9,7.2-2.7,13-3.9,5.5-1.1,7.7-1.6,10.1-2.2.5-.1,1.2-.3,2-.4,2.8-.6,6.6-1.4,10.2-2.7,2.6-.9,6.9-2.6,10.2-3.8-.1.3-.3.6-.4.9-1,1.9-3,4.2-5.5,5.2-.9.4-1.7.7-3.7,1.1-2.2.5-9.6,2.4-10.3,2.5-.8.2-3.9,1.1-6,3.7h0ZM106,39l-37.4,29.6c-.4-.3-1-.7-1.5-1.1l-1.1-.7c-2.8-1.7-8.6-5.2-12.8-7.7-4.1-2.5-8.1-5.9-10.5-8,2.2,1.7,4.4,3.3,4.9,3.7.7.6,3.5,2.5,7.6,2.2,4-.3,7.4-3.2,8.8-5.8.6-1.1.9-2.2,1.1-3.3.4-1.5.7-2.8,1.8-4.3,1.3-1.8,2.3-2.5,4.5-3.6,2.5-1.1,29-13.2,31.9-14.5.3,0,.6-.1.8,0,1,.9,4.2,4.7,7,8.2-.9,1.3-2.4,3.3-5,5.3h0Z"/>
      <path class="cls-1" d="M119.5,29.2c-3.5-4.5-8.2-10.2-10.1-11.5-4.2-3-9.1-1.1-9.6-.9,0,0-.1,0-.2,0-.3.1-29.4,13.4-32,14.6-3.2,1.4-5.7,3.1-8.3,6.6-2.1,2.9-2.8,5.7-3.3,7.6,0,.4-.2.9-.3,1.1-.2.3-.9.8-1.2.9-.6,0-1-.2-1.1-.2-3.6-2.8-9.1-7-9.5-7.3h0c-.4-.3-.5-.4-.6-1,0-.5,0-.9.6-1.8.1-.1.5-.3.8-.4,0,0,0,0,.1,0,0,0,8-2,10.2-2.5,2.4-.6,3.7-1,5.1-1.6,5.9-2.4,9.1-7.4,10.2-9.5,1.8-3.3,2.5-7.7,2.5-9,0-1.5-.4-2.8-1.1-4-.7-1.2-1.8-2.1-3.2-2.8-2.2-1-4.1-.5-5.1-.1-.8.3-10.1,3.8-14.4,5.4-3,1.1-6.4,1.8-9,2.4-.9.2-1.6.3-2.2.5-2.3.5-4.4,1-9.8,2.1-6.4,1.3-9.7,2.3-14.7,4.5-5.1,2.2-10.1,5.4-10.8,5.9C-.1,30.2-.1,32.6,0,33.8c.4,2.2,2,3.9,4.4,4.8,1.2.5,2.6,1,4,1.6,4.4,1.7,9.9,3.8,13.5,5.8,4,2.2,7.5,5.7,10.4,8.4.8.8,1.5,1.5,2.2,2.1,1.7,1.5,7.6,6.8,13.6,10.6,4.2,2.6,10.1,6.1,12.9,7.8l1.1.7c.6.3,1,.7,1.5,1.2.9.8,2.1,2,4.1,2.2.2,0,.4,0,.6,0,1.9,0,3.4-1,4.2-1.6l39.1-31s0,0,0,0c4.7-3.8,7.1-7.7,8-9.2.5-.9,1.1-2.2,1.1-3.8,0-2-1-3.6-1.5-4.2h0ZM116.6,35.3c-.7,1.3-2.9,4.7-7.1,8.1,0,0,0,0,0,0l-39.2,31c-.3.2-1.1.8-1.9.8s-.1,0-.2,0c-.7,0-1.3-.6-2-1.2-.6-.5-1.2-1.1-2.1-1.6l-1.1-.7c-2.8-1.7-8.7-5.2-12.9-7.8-5.8-3.6-11.5-8.7-13.1-10.2-.6-.6-1.4-1.3-2.1-2-2.8-2.8-6.7-6.5-11.2-9-3.8-2.1-9.4-4.3-13.9-6.1-1.5-.6-2.9-1.1-4.1-1.6-.5-.2-1.9-.7-2.1-1.9-.2-1.2.6-1.8.9-2,.4-.3,5.1-3.3,9.9-5.4,4.8-2,7.9-3,14-4.2,5.5-1.1,7.5-1.6,9.9-2.2.6-.1,1.3-.3,2.2-.5,2.6-.6,6.2-1.3,9.5-2.5,4.3-1.6,13.8-5.2,14.4-5.4.3-.1,1.1-.4,2.2,0,.5.2,1.1.6,1.5,1.3.5.8.5,1.5.5,2,0,.8-.6,4.5-2,7.2-1.9,3.5-5,6.4-8.3,7.8-1.1.5-2.1.8-4.6,1.4-2.2.5-10.2,2.5-10.3,2.5,0,0,0,0,0,0,0,0-1.9.4-2.9,1.7-1.2,1.5-1.6,3-1.4,4.8.3,2,1.5,2.9,2,3.3h0c.6.5,9.5,7.3,9.6,7.3,0,0,0,0,0,0,0,0,1.4,1.1,3.7,1,1.7-.1,3.5-1.6,4.2-2.9.3-.5.4-1.2.6-2,.4-1.6,1-3.9,2.7-6.2,1.9-2.6,3.6-4,6.8-5.4,2.6-1.2,31.7-14.4,32-14.6,0,0,0,0,0,0,.1,0,3.4-1.3,6.1.5,1.9,1.3,8.6,9.8,9.3,10.8.1.1.7.9.7,1.8,0,.7-.3,1.4-.7,2h0Z"/>
    </g>
  </g>
</svg>