<?xml version="1.0" encoding="UTF-8"?>
<svg xmlns="http://www.w3.org/2000/svg" xmlns:xlink="http://www.w3.org/1999/xlink" version="1.1" viewBox="0 0 121 85">
  <defs>
    <style>
      .cls-1 {
        fill: none;
      }

      .cls-2 {
        fill: #e0e0e0;
      }

      .cls-3 {
        clip-path: url(#clippath);
      }
    </style>
    <clipPath id="clippath">
      <rect class="cls-1" width="121" height="85"/>
    </clipPath>
  </defs>
  <!-- Generator: Adobe Illustrator 28.7.1, SVG Export Plug-In . SVG Version: 1.2.0 Build 142)  -->
  <g>
    <g id="Layer_1">
      <g class="cls-3">
        <g>
          <path class="cls-2" d="M47.1,26.1c.1-.2,1.6-3.7,1.9-4.1,0-.2.1-.4,0-.4,0,0,0,0-.1,0,0,0-.2,0-.3,0-.3.4-4,6.3-4.5,7.1-.7,1-1.6,1.8-3,2.8-1.5,1.1-3.5,1.3-3.8,1.4-.4,0-3.5.6-6.1,0-2.5-.5-5.2-1.6-5.5-1.8-.3-.1-2.5-.9-4.9-2.9-2.5-2.1-4.1-5.8-4.1-5.9,0,0-2.3-5.6-2.8-6.6-.2-.5-.4-.9-1.1-1.4-.4-.3-1.8-.3-2.9-.2,0,0,0,0,0,0-1.1,0-2.9.5-3.4,1.1-.7.8-.7,1.9-.7,2,0,.2.3,2,2.1,3.4,2.4,1.9,4.6,3.6,7.2,5.4,2.6,1.8,7.7,4.2,8.1,4.4l9,3.4,8.6,3.1,7.6,2.7c-.8-4.1-1.6-8.5-1.8-9.5-.3-2,.3-3.6.4-3.8h0Z"/>
          <path class="cls-2" d="M118.5,60.4c-1.9-2.3-13.4-16.5-13.6-16.7l-11.4-14c-.4-.6-2.7-3.3-5.9-5-3.7-1.9-7.2-2.4-10.4-1.4-.3.1-1.1.3-2.5,1.3-1.8-.9-4-.9-5.7.3h-.2c-.7.6-2.1,1.5-3.1,2.5l-4.4,4-2.8,2.5c0,0-.1.1-.2.2-1.2.8-2.5,1.6-3.3,1.9-.4.2-.7.3-1.1.4-.8-4.2-1.3-6.9-1.4-7.5,0-.2,0-.3,0-.4.6-1.4,1.7-3.7,1.8-4,.8-1.6.9-3.4.3-5-.6-1.5-1.7-2.7-3.3-3.4-3.1-1.4-6.2.1-7.5,2.2,0,0,0,0,0,0-1.9,2.9-4,6.3-4.4,6.8-.2.2-.5.6-1.6,1.4-.2.1-.7.3-1.1.3-.1,0-.2,0-.3,0-.9.2-2.8.3-4,0-1.7-.3-3.7-1.1-4.4-1.4-.1,0-.2,0-.3-.1-.2,0-1.6-.6-3.1-1.9-1.1-.9-2.1-2.9-2.5-3.7-.3-.7-2.4-5.7-2.8-6.7-.5-1.2-1.3-2.4-3-3.7-2-1.5-4.8-1.6-6.9-1.4-1.5.1-5.2.7-7.3,3.1C-.2,13.8,0,17,0,17.6c0,0,0,0,0,0,0,.7.7,4.4,4.3,7.3,2.5,2,4.8,3.8,7.6,5.7,3.1,2.1,8.4,4.6,9,4.9.1,0,.2,0,.3.1l9,3.4s0,0,0,0l8.6,3.1,6.6,2.3c0,.5.2.9.3,1.3h0c.2,1.4.8,2.6,1.7,3.5,1.3,1.2,3,1.9,4.9,1.8,1.6,0,6.8-.5,7.6-.6,1.1,0,2.9-.6,4.5-2.5.6-.7,4.9-5.9,5.4-6.5.3-.3,1.1-1.1,2-1.5.3-.1.5-.2.8-.3,1.3-.6,1.4-.6,3.3-.5,1.1,0,2.8.8,3.9,1.5-.3.9-.8,2.2-1.1,3.1l-.2.5c-.4,1-.5,2.1-.5,3.1,0,1.9.6,3.6,1.6,5,1.8,2.5,4.1,3.4,4.7,3.7.6.2,2.1.7,3.6.7.5,0,1.3,0,1.7,0,0,0,0,0,0,0,.4,1.3,1,3.8,1,3.8,0,0,0,.1,0,.2.9,2.7,3.5,5.7,7.4,6,.6,0,1.2,0,1.6.1.1,0,.3,0,.4,0,1.7,2.5,4.8,7.5,4.9,7.6,1,1.6,3.4,3.5,6.8,3.5s.4,0,.6,0c3.8-.2,6.4-3,7.2-5.7,0,0,0,0,0,0l.8-2.7s0,0,0,0c.6-2.2.4-5.9-2.2-9h0ZM117,68.4l-.8,2.7c0,.1-.9,2.8-3.7,3-.1,0-.2,0-.4,0-1.9,0-3.1-1-3.5-1.6,0,0-3.7-5.9-5.3-8.2-.8-1.1-1.5-1.2-3.1-1.2-.4,0-.9,0-1.4,0-3.1-.3-4.1-3.2-4.1-3.3,0,0,0,0,0,0,0,0-.8-3.1-1.2-4.2-.2-.8-.5-1.1-1.2-1.7h0c-.3-.3-.9-.5-1.7-.7-.2,0-.3,0-.5,0-.3,0-1.3,0-2,0-1,0-2.2-.4-2.3-.5-.2,0-1.6-.6-2.8-2.3-.6-.8-.9-1.8-.9-2.8,0-.6,0-1.2.3-1.7l.2-.5c.3-.9.8-2.2,1.1-3.1.4-1.1.3-1.7,0-2.8,0-.4-.5-.9-1-1.4,0,0-.2-.2-.3-.3-.6-.4-3.5-2.2-6.2-2.3-2.7,0-3.3.2-4.9.8-.2,0-.5.2-.7.3-2,.8-3.4,2.5-3.5,2.5,0,0-4.8,5.8-5.4,6.5-.8.9-1.5,1.1-1.8,1.1-.6,0-5.9.5-7.5.6-1.7,0-2.5-.9-2.6-1.8,0,0,0-.1,0-.2h0c-.2-1-.4-2.2-.7-3.5-.4-.2-.8-.3-1-.4,0,0,0,0,0,0l-7.7-2.7-8.6-3.1s0,0,0,0l-9-3.4s0,0,0,0c-.2-.1-5.6-2.6-8.4-4.6-2.7-1.8-4.9-3.5-7.3-5.5-2.5-2-2.8-4.6-2.8-4.7,0,0,0,0,0,0,0,0-.2-2,1.1-3.5,1.3-1.4,4.3-1.7,4.7-1.8.7,0,3.1-.2,4.2.6,1.1.8,1.4,1.5,1.8,2.2.4,1,2.7,6.4,2.8,6.7,0,0,1.4,3.4,3.6,5.2,2.2,1.8,4.3,2.5,4.3,2.5,0,0,0,0,0,0,0,0,2.7,1.2,5.2,1.6,2.4.5,5.4,0,5.4,0,0,0,0,0,0,0,0,0,1.7-.2,2.9-1,1.5-1,2.1-1.7,2.5-2.3.5-.6,3.4-5.3,4.5-7,.3-.5,1.3-1.4,2.7-.8.7.3,1.1.8,1.2,1.2.3.8,0,1.5-.2,1.9-.2.5-1.8,4.1-1.9,4.1,0,0,0,0,0,0,0,0-.5,1.1-.3,2.6.2,1.1,1.2,6.3,2,10.7.2,0,.4.2.6.2.3.1.7.2,1.1.3.2,0,.5,0,.7,0,1.2-.2,2.4-.6,3.5-1,1.5-.6,3.3-1.8,4-2.3.2-.1.4-.3.6-.5l2.8-2.5,4.4-4.1c.8-.8,2-1.5,2.6-1.9h.2c.8-.6,1.5-.5,2-.1,0,0,0,0,0,0,0,0,.7.6,1.3,1.3,0,0,0,0,.1,0,0,0,0,0,.1,0,.9-.7,2.5-2,3.6-2.4,2.2-.7,4.7-.3,7.5,1.2,2.6,1.3,4.4,3.7,4.6,3.9l11.4,14c.1.1,11.7,14.4,13.6,16.7,2.2,2.7,1.5,5.3,1.4,5.5h0Z"/>
          <path class="cls-2" d="M100.4,47.5l-11.4-14s0,0,0,0c0,0-1.7-2.2-4-3.4-2.3-1.2-4.3-1.5-6-1-.5.2-1.7,1-2.9,2-.3.2-.6.4-.9.5-.7.2-1.4,0-2-.5-.4-.4-.8-.8-1.1-1,0,0,0,0,0,0-.6.4-1.7,1.1-2.4,1.7l-4.4,4.1-2.8,2.5c-.2.2-.5.4-.8.6-.9.6-2.7,1.8-4.3,2.5-1.2.5-2.5.9-3.9,1.2-.4,0-.9.1-1.3,0-.3,0-.7-.1-1-.2.2.9.3,1.7.4,2.3h0c0,.1,0,.2,0,.3,0,.2.5.2.6.2,1.5,0,7.4-.6,7.4-.6h0c0,0,.2-.1.4-.4.6-.8,5.4-6.6,5.4-6.6,0,0,1.8-2.1,4.2-3.1.3-.1.5-.2.7-.3,1.8-.8,2.7-1.1,5.8-1,3.1.1,6.3,2,7.2,2.6.2.1.4.3.6.5.6.5,1.3,1.4,1.5,2.3.3,1.2.5,2.3-.1,3.9-.3.9-.8,2.2-1.1,3.1l-.2.4c-.1.3-.2.7-.2,1,0,.5.1,1.1.5,1.7.8,1.2,1.9,1.6,1.9,1.6.3,0,1.1.3,1.7.3s1.4,0,2,0c.3,0,.6,0,.9.1.8.2,1.9.6,2.5,1.2h0c.7.6,1.3,1.2,1.7,2.6.3,1.1,1.1,3.9,1.2,4.2,0,.2.7,1.8,2.4,2,.5,0,.9,0,1.4,0,1.8,0,3.3.2,4.6,2.1,1.5,2.2,5.1,7.9,5.3,8.2,0,0,.6.8,2.1.7,1.4,0,1.9-1.6,2-1.6l.8-2.7c0-.1.4-1.8-1.1-3.7-1.9-2.3-13.5-16.5-13.6-16.7h0ZM100.4,57.2c-.1,0-.3,0-.4,0-.3-1-.7-2.7-.9-3.4-.7-2.4-2-3.6-2.9-4.4h0c-1-1-2.4-1.6-4.2-2.1-.6-.1-1.2-.2-1.8-.2-.6,0-1.4,0-2,0,0,0,0,0-.1,0,.3-.9.7-2.1,1-2.9.5-1.3.6-2.5.6-3.5l7.7,9.4c.2.3,3.1,3.9,6.2,7.7-1.2-.4-2.3-.4-3.2-.5Z"/>
        </g>
      </g>
    </g>
  </g>
</svg>