<?xml version="1.0" encoding="UTF-8"?>
<svg xmlns="http://www.w3.org/2000/svg" version="1.1" viewBox="0 0 121 85">
  <defs>
    <style>
      .cls-1 {
        fill: #e0e0e0;
      }
    </style>
  </defs>
  <!-- Generator: Adobe Illustrator 28.7.1, SVG Export Plug-In . SVG Version: 1.2.0 Build 142)  -->
  <g>
    <g id="Layer_1">
      <path class="cls-1" d="M97.7,5.4c-1.5-.5-4.5-1-10.3-.6,0,0-.2,0-.2,0-.9,0-1.6.2-2.1.4-1.2.5-1.7,1.3-2,1.9-.6,1.4-.4,2.4-.4,2.4.2.9,3.9,21.5,4,23.2.1,2.1-1.7,3.5-3.1,3.9-1.2.3-2.4,0-3.5-.7-.6-.4-1.1-1.3-1.6-2.1-.2-.3-.3-.6-.4-.7,0,0-.2-.3-.6,0h0c-6.1,4-17.2,7.5-21.8,8.4-4.6,1-10,1.5-13.4,1.6-3.7.2-10-.6-10.9-.8-2.6-.5-4.1-2.3-4.2-4.9,0-4,3.4-5.2,5.7-6h.2c2.1-.8,5.9-1.5,8-1.8h.1c1.9-.3,4.3-2.2,4.4-3.5,0-1.3-3.2-4.2-6.8-5.6-3.9-1.5-8-1.5-9.3-1.4-.9.1-1.3.3-1.8,1.1-.3.5-1,1.9-1.8,3.7-.6,1.3-1.3,2.8-2.2,4.5-1,2.1-2.3,3.8-3.5,5.5-.5.7-1,1.3-1.4,2-.8,1.1-1.6,2.4-2,3.6-1.1,3.9.6,6.8,2.3,8.6,1.8,2,4.8,2.3,5,2.3.4,0,8.8.6,12.1.6h0c3.2,0,6.8-1.6,8.8-3.2,1.2-.9,5.6-3.9,10.2-4.2,2.1-.1,4.7.4,7.5,1,3.1.7,6.3,1.3,9,1.1,3-.2,7.1-1.3,12.2-3.1.1,0,.3,0,.3-.1h.2c1-.4,2.3-.9,3.6-.5,1,.3,1.9,1,2.5,1.9.8,1.2.8,2.7,0,4-.7,1.2-1.8,1.6-2,1.7-.2,0-5,2.1-6,2.5-1,.5-1.7,1.3-1.9,2.4,0,.4,0,1.1,0,1.8,0,1.7.2,4.1-.5,7-.7,2.8-2.6,7.7-3.9,10.4-1,2-1.3,3.3-1.2,3.7,0,1,.8,2.2,2.3,2.7,2.4.8,3.4-1.3,3.5-1.5.5-1.3,22-54,23.5-58.1,1.6-4.3.4-8.7-1.4-11.1-1.6-2.1-3.2-3.2-5.5-4h0ZM36.4,47.9c-3.1,0-10.8-.5-11.8-.6-.6,0-2.2-.5-3-1.4-1.6-1.8-2.2-3.7-1.6-5.6.2-.7,1-1.9,1.6-2.8.4-.6.9-1.2,1.3-1.9,1.2-1.7,2.6-3.6,3.8-5.9.9-1.7,1.6-3.3,2.2-4.6.5-1.1,1.1-2.4,1.5-3,1,0,4.2,0,7.5,1.2,1.7.7,3.3,1.8,4.2,2.6-.4.3-.9.5-1.2.6h-.1c-3,.5-6.4,1.1-8.6,1.9h-.2c-1.3.5-3,1.2-4.5,2.3-2.1,1.7-3.2,4-3.2,6.7,0,2.6,1.2,4.9,3.1,6.4,1,.8,2.2,1.3,3.6,1.5.8.1,7,.9,11.2.8-1.7.9-3.8,1.7-5.6,1.6h0ZM71.7,42.7c-1.8.1-4.1-.2-6.4-.7,3.9-1.3,8.1-3,11.6-4.9.4.5.9,1,1.4,1.4,1.4,1,2.9,1.4,4.5,1.4-5.9,2.1-9.3,2.7-11.1,2.8h0ZM82.9,65.9c.2-.7.4-1.3.5-1.9.8-3.3.7-6.1.6-7.9,0-.4,0-1,0-1.2,0,0,0,0,0,0,0,0,0,0,0,0,.5-.2,2.3-1,4-1.7-1.9,4.6-3.6,9-5.2,12.7h0ZM101.7,19.4c-.6,1.7-4.5,11.2-8.9,22-1-1.2-2.3-2-3.7-2.4-.6-.2-1.2-.2-1.8-.2s-.8,0-1.1,0c.6-.3,1.1-.8,1.6-1.2,1.4-1.4,2.1-3.2,1.9-5.1-.1-1.7-2.9-16.8-4-23.4,0,0,0-.4.2-.8,0-.1.2-.2.4-.3.1,0,.5-.1,1-.2,0,0,.1,0,.3,0,5.8-.4,8.3.2,9.1.4,1.7.6,2.8,1.4,4,3,1.1,1.4,2.2,4.8,1,8.1h0Z"/>
      <path class="cls-1" d="M106.9,6.6c-2.1-2.8-4.5-4.5-7.7-5.6-2.8-.9-6.9-1.2-12.1-.8,0,0-.1,0-.2,0-1.5,0-2.7.4-3.7.9-2.5,1.2-3.7,3-4.3,4.3-1.1,2.5-.9,4.5-.7,5.2,1.3,7.3,2.8,15.2,3.5,19.6-.8-1-1.9-1.6-3.2-1.7-1.7-.2-3,.5-3.5.9-5.6,3.6-16,6.8-20.1,7.7-4.4.9-9.4,1.4-12.7,1.5-3.3.1-9.1-.6-9.8-.7-.2,0-.3,0-.3-.1,0,0,0-.1,0-.3,0-.3,0-.3.2-.5.5-.4,1.5-.8,2.4-1.1h.2c1.7-.7,5.4-1.3,7.2-1.6h.1c1.7-.3,3.5-1.2,5-2.4,2-1.6,3.1-3.4,3.2-5.4.2-2.2-1.1-4.5-3.7-6.7-1.7-1.5-3.9-2.8-6-3.6-5.8-2.3-11.3-1.7-11.5-1.7-2.3.3-3.9,1.2-5.1,3.1-.5.8-1,1.9-2.1,4.2-.6,1.3-1.3,2.8-2.1,4.4-.9,1.7-2,3.3-3.1,4.8-.5.7-1,1.4-1.5,2.1-.9,1.4-2,3-2.6,4.9-1.4,4.6-.2,9.3,3.3,13.1,3,3.3,7.5,3.8,8,3.8h.1c.4,0,8.9.6,12.3.6h0c4.3,0,8.9-2,11.6-4.1,2-1.5,5-3.1,7.7-3.3,1.5,0,3.9.4,6.3.9,3.3.7,7,1.5,10.3,1.2,1.8-.1,3.9-.5,6.4-1.2-1.2,1.2-2.1,2.7-2.3,4.5-.1.9-.1,1.8,0,2.8,0,1.5.2,3.4-.4,5.7-.6,2.4-2.4,7-3.6,9.5-1.9,3.9-1.7,5.7-1.7,6.2.2,2.5,2,5.6,5.5,6.7.9.3,1.7.4,2.5.4,3.3,0,5.7-2.3,6.6-4.3h0c0,0,0-.3,0-.3.9-2.2,22-54,23.6-58.3,2.2-5.9.6-12.1-2.1-15.6h0ZM106.1,21c-1.6,4.2-23.3,57.6-23.6,58.2h0c-.5,1.1-1.8,2.7-3.9,2.7s-1,0-1.5-.2c-2.1-.7-3.2-2.5-3.3-4-.1-1.3.8-3.4,1.4-4.6,1.3-2.6,3.1-7.4,3.8-10.1.7-2.7.5-4.9.5-6.6,0-.9,0-1.6,0-2.1.3-1.6,1.3-2.9,2.8-3.6,1-.5,5.8-2.4,6-2.5h0s.8-.3,1.2-1.1c.5-.8.5-1.6,0-2.3-.1-.2-.6-.9-1.6-1.2-.8-.2-1.9.2-2.7.4h-.2c0,0-.2.1-.3.2-5.3,1.9-9.5,3-12.6,3.2-2.9.2-6.2-.5-9.4-1.1-2.7-.6-5.2-1.1-7.1-1-4.2.2-8.2,3-9.3,3.9-2.2,1.7-6.2,3.5-9.8,3.5h0c-3.4,0-11.8-.6-12.2-.6h0c-.2,0-3.8-.4-6-2.8-2.8-3-3.7-6.6-2.6-10.1.4-1.4,1.4-2.8,2.2-4,.5-.7.9-1.3,1.4-2,1.2-1.6,2.4-3.3,3.4-5.3.8-1.7,1.6-3.2,2.2-4.5.9-1.9,1.5-3.2,1.9-3.8.7-1.1,1.5-1.6,2.9-1.8,0,0,5-.5,10,1.5,3.3,1.3,7.9,4.6,7.7,7.2-.2,2.1-3.3,4.5-5.7,4.9h-.1c-2,.4-5.8,1-7.7,1.7h-.2c-2.7,1-4.7,2-4.6,4.6,0,2.4,1.6,3.2,2.9,3.4.6.1,6.8.9,10.5.7,3.4-.1,8.6-.6,13.2-1.6,4.5-.9,15.3-4.3,21.2-8.2.2-.1.7-.5,1.5-.4.3,0,.8.2,1.2.7.2.2.3.5.6.9.3.5.8,1.4,1.2,1.6.7.5,1.5.7,2.2.5.7-.2,2-1,1.9-2.2,0-1.3-2.9-17-4-23,0,0-.3-1.5.5-3.3.4-.8,1.1-1.9,2.7-2.7.8-.4,1.9-.5,2.6-.6,0,0,.1,0,.2,0,6.1-.5,9.3.1,10.9.6,2.6.9,4.5,2.2,6.3,4.5,2.1,2.8,3.4,7.7,1.6,12.6h0ZM87,45.2s0,0,0,0h0s0,0,0,0h0Z"/>
    </g>
  </g>
</svg>